<svg id="svg" version="1.1" xmlns="http://www.w3.org/2000/svg" xmlns:xlink="http://www.w3.org/1999/xlink" width="400" height="400" viewBox="0, 0, 400,400"><g id="svgg"><path id="path0" d="M175.600 11.200 C 175.600 11.431,174.341 11.600,172.624 11.600 C 170.987 11.600,169.536 11.780,169.400 12.000 C 169.264 12.220,168.454 12.400,167.600 12.400 C 166.746 12.400,165.936 12.580,165.800 12.800 C 165.664 13.020,164.854 13.200,164.000 13.200 C 163.146 13.200,162.336 13.380,162.200 13.600 C 162.064 13.820,161.344 14.000,160.600 14.000 C 159.856 14.000,159.136 14.180,159.000 14.400 C 158.864 14.620,158.324 14.800,157.800 14.800 C 157.276 14.800,156.736 14.980,156.600 15.200 C 156.464 15.420,155.823 15.600,155.176 15.600 C 154.529 15.600,154.000 15.780,154.000 16.000 C 154.000 16.220,153.460 16.400,152.800 16.400 C 152.140 16.400,151.600 16.580,151.600 16.800 C 151.600 17.020,151.251 17.200,150.824 17.200 C 150.397 17.200,149.936 17.380,149.800 17.600 C 149.664 17.820,149.113 18.000,148.576 18.000 C 148.039 18.000,147.600 18.180,147.600 18.400 C 147.600 18.620,147.240 18.800,146.800 18.800 C 146.360 18.800,146.000 18.980,146.000 19.200 C 146.000 19.420,145.669 19.600,145.264 19.600 C 144.859 19.600,142.744 20.523,140.564 21.652 C 138.384 22.781,136.196 23.906,135.703 24.152 C 135.210 24.398,134.805 24.735,134.803 24.900 C 134.801 25.065,134.440 25.200,134.000 25.200 C 133.560 25.200,133.200 25.380,133.200 25.600 C 133.200 25.820,132.964 26.000,132.675 26.000 C 132.387 26.000,131.764 26.360,131.292 26.800 C 130.820 27.240,130.238 27.600,130.000 27.600 C 129.762 27.600,129.180 27.960,128.708 28.400 C 128.236 28.840,127.613 29.200,127.325 29.200 C 127.036 29.200,126.800 29.380,126.800 29.600 C 126.800 29.820,126.557 30.000,126.259 30.000 C 125.962 30.000,125.194 30.495,124.552 31.100 C 123.911 31.705,122.894 32.455,122.293 32.768 C 121.692 33.080,121.200 33.485,121.200 33.668 C 121.200 33.850,120.952 34.000,120.648 34.000 C 120.345 34.000,119.355 34.720,118.448 35.600 C 117.541 36.480,116.641 37.200,116.448 37.200 C 116.255 37.200,115.355 37.920,114.448 38.800 C 113.541 39.680,112.648 40.400,112.463 40.400 C 111.853 40.400,105.200 47.131,105.200 47.748 C 105.200 48.081,105.020 48.464,104.800 48.600 C 104.262 48.933,104.257 67.465,104.795 67.797 C 105.053 67.956,105.100 73.813,104.932 84.535 L 104.673 101.029 107.023 103.015 C 108.315 104.107,109.739 105.304,110.186 105.676 C 110.634 106.048,113.790 108.685,117.200 111.536 C 120.975 114.692,123.549 116.578,123.780 116.359 C 123.989 116.162,126.457 116.000,129.264 116.000 C 132.071 116.000,135.770 115.818,137.484 115.596 C 139.198 115.374,142.040 115.007,143.800 114.780 C 148.158 114.220,153.218 113.359,157.800 112.400 C 158.680 112.216,160.480 111.841,161.800 111.567 C 164.076 111.094,176.723 107.951,179.500 107.167 C 180.215 106.965,181.430 106.620,182.200 106.400 C 183.668 105.980,185.778 105.385,187.800 104.819 C 191.172 103.875,212.214 96.888,216.800 95.188 C 218.670 94.495,220.650 93.786,221.200 93.612 C 222.102 93.327,226.576 91.626,228.600 90.800 C 229.040 90.620,233.180 88.988,237.800 87.172 C 247.485 83.366,246.705 83.780,246.085 82.787 C 245.818 82.360,245.600 81.684,245.600 81.285 C 245.600 80.886,245.436 80.389,245.235 80.180 C 245.034 79.971,244.411 78.450,243.849 76.800 C 243.288 75.150,241.734 70.650,240.397 66.800 C 239.060 62.950,237.267 57.730,236.412 55.200 C 235.557 52.670,234.390 49.340,233.819 47.800 C 233.063 45.762,232.847 44.592,233.025 43.500 C 233.183 42.536,233.115 42.000,232.835 42.000 C 232.596 42.000,232.400 41.460,232.400 40.800 C 232.400 40.140,232.220 39.600,232.000 39.600 C 231.780 39.600,231.600 39.060,231.600 38.400 C 231.600 37.740,231.420 37.200,231.200 37.200 C 230.980 37.200,230.800 36.660,230.800 36.000 C 230.800 35.340,230.620 34.800,230.400 34.800 C 230.180 34.800,230.000 34.361,230.000 33.824 C 230.000 33.287,229.820 32.736,229.600 32.600 C 229.380 32.464,229.200 31.823,229.200 31.176 C 229.200 30.529,229.020 30.000,228.800 30.000 C 228.580 30.000,228.400 29.561,228.400 29.024 C 228.400 28.487,228.220 27.936,228.000 27.800 C 227.780 27.664,227.600 27.201,227.600 26.771 C 227.600 26.341,227.420 25.632,227.200 25.195 C 226.980 24.758,226.620 24.042,226.400 23.605 C 226.180 23.168,226.000 22.448,226.000 22.005 C 226.000 21.562,225.820 21.200,225.600 21.200 C 225.380 21.200,225.200 20.660,225.200 20.000 C 225.200 19.340,225.020 18.800,224.800 18.800 C 224.580 18.800,224.400 18.476,224.400 18.080 C 224.400 17.041,223.606 16.400,222.320 16.400 C 221.704 16.400,221.200 16.220,221.200 16.000 C 221.200 15.780,220.660 15.600,220.000 15.600 C 219.340 15.600,218.800 15.420,218.800 15.200 C 218.800 14.980,218.181 14.800,217.424 14.800 C 216.667 14.800,215.936 14.620,215.800 14.400 C 215.664 14.180,214.843 14.000,213.976 14.000 C 213.109 14.000,212.400 13.820,212.400 13.600 C 212.400 13.380,211.680 13.200,210.800 13.200 C 209.920 13.200,209.200 13.020,209.200 12.800 C 209.200 12.578,208.141 12.400,206.824 12.400 C 205.517 12.400,204.336 12.220,204.200 12.000 C 204.064 11.780,202.804 11.600,201.400 11.600 C 199.996 11.600,198.736 11.420,198.600 11.200 C 198.445 10.949,194.129 10.800,186.976 10.800 C 179.659 10.800,175.600 10.943,175.600 11.200 M157.436 299.542 C 157.231 299.873,157.144 317.487,157.182 350.700 C 157.202 368.124,157.094 367.377,159.400 366.163 C 160.490 365.590,165.491 363.011,183.000 353.994 C 186.300 352.295,192.240 349.234,196.200 347.193 C 200.160 345.151,205.214 342.546,207.430 341.404 L 211.460 339.327 213.488 341.586 C 214.627 342.855,216.368 344.257,217.458 344.785 C 218.526 345.303,219.713 345.878,220.095 346.063 C 223.690 347.807,230.497 345.634,234.144 341.578 C 236.453 339.010,233.845 338.118,253.200 348.093 C 257.490 350.304,263.430 353.363,266.400 354.891 C 269.370 356.419,272.406 358.284,273.146 359.035 C 273.886 359.786,274.741 360.400,275.046 360.400 C 275.351 360.400,275.600 360.580,275.600 360.800 C 275.600 361.020,275.960 361.200,276.400 361.200 C 276.840 361.200,277.200 361.380,277.200 361.600 C 277.200 361.820,277.560 362.000,278.000 362.000 C 278.440 362.000,278.800 362.180,278.800 362.400 C 278.800 362.620,279.160 362.800,279.600 362.800 C 280.040 362.800,280.400 362.980,280.400 363.200 C 280.400 363.420,280.760 363.600,281.200 363.600 C 281.640 363.600,282.000 363.780,282.000 364.000 C 282.000 364.220,282.360 364.400,282.800 364.400 C 283.240 364.400,283.600 364.580,283.600 364.800 C 283.600 365.020,283.960 365.200,284.400 365.200 C 284.840 365.200,285.200 365.380,285.200 365.600 C 285.200 365.820,285.560 366.000,286.000 366.000 C 286.440 366.000,286.800 366.180,286.800 366.400 C 286.800 366.620,287.145 366.800,287.567 366.800 C 287.988 366.800,288.398 366.994,288.477 367.231 C 288.556 367.468,289.246 367.693,290.010 367.731 L 291.400 367.800 291.507 358.220 C 291.600 349.968,291.530 348.593,291.004 348.298 C 290.466 347.997,290.394 345.051,290.406 323.721 C 290.414 310.392,290.317 299.384,290.191 299.258 C 290.066 299.133,287.856 300.121,285.282 301.454 C 282.707 302.787,276.820 305.819,272.200 308.192 C 267.580 310.564,261.460 313.718,258.600 315.200 C 234.403 327.739,235.884 327.137,234.496 324.995 C 230.209 318.377,219.896 317.918,213.970 324.081 C 211.210 326.952,212.009 327.040,204.184 323.000 C 200.563 321.130,194.630 318.070,191.000 316.200 C 187.370 314.330,181.385 311.247,177.700 309.348 C 174.015 307.450,168.082 304.390,164.516 302.548 C 157.540 298.946,157.749 299.035,157.436 299.542 " stroke="none" fill="#bc044c" fill-rule="evenodd"></path><path id="path1" d="M240.800 86.488 C 203.831 101.337,170.541 111.338,146.600 114.789 C 144.840 115.043,142.320 115.406,141.000 115.595 C 139.680 115.785,135.478 116.166,131.663 116.442 C 125.254 116.905,124.702 117.006,124.410 117.771 C 124.237 118.227,122.979 119.570,121.616 120.755 C 119.334 122.738,119.189 122.960,119.784 123.555 C 120.599 124.368,137.551 124.445,143.600 123.663 C 153.259 122.415,160.410 121.194,167.400 119.600 C 168.500 119.349,170.210 118.965,171.200 118.747 C 172.190 118.528,173.720 118.166,174.600 117.942 C 175.480 117.717,176.920 117.354,177.800 117.134 C 180.689 116.412,182.160 116.027,185.200 115.200 C 190.133 113.858,191.296 113.526,193.600 112.802 C 194.810 112.422,197.060 111.727,198.600 111.257 C 206.264 108.920,223.949 102.911,228.200 101.200 C 228.640 101.023,229.990 100.518,231.200 100.078 C 233.487 99.247,241.530 96.195,243.100 95.562 C 243.595 95.363,244.405 95.032,244.900 94.826 C 245.395 94.621,246.498 94.217,247.350 93.928 C 249.052 93.352,249.531 92.681,248.838 91.846 C 248.590 91.547,247.954 90.028,247.424 88.469 C 245.918 84.041,246.475 84.208,240.800 86.488 M173.800 165.381 C 158.865 169.826,151.555 185.951,158.407 199.338 C 168.969 219.974,198.558 215.679,203.445 192.800 C 206.927 176.499,189.767 160.628,173.800 165.381 M264.778 165.756 C 241.033 173.990,243.035 206.966,267.600 212.242 C 281.748 215.280,296.047 203.371,295.984 188.600 C 295.915 172.702,279.468 160.662,264.778 165.756 M183.908 173.201 C 191.259 177.682,191.328 198.782,184.009 203.993 C 181.332 205.899,178.225 204.839,175.936 201.239 C 169.874 191.705,173.398 172.403,181.200 172.403 C 181.970 172.403,183.189 172.762,183.908 173.201 M276.025 173.305 C 282.716 177.815,283.625 195.660,277.517 202.600 C 273.725 206.908,269.030 205.014,266.548 198.174 C 261.841 185.207,268.348 168.132,276.025 173.305 M211.400 227.862 C 208.515 227.994,201.843 228.707,198.800 229.208 C 197.590 229.407,195.340 229.773,193.800 230.021 C 188.645 230.851,178.817 233.114,174.600 234.442 C 167.951 236.536,165.732 237.308,161.356 239.048 C 133.771 250.018,113.616 268.516,106.864 289.061 C 104.414 296.516,104.050 295.822,114.174 303.024 C 126.030 311.456,150.858 323.600,156.244 323.600 C 156.707 323.600,156.800 321.514,156.800 311.200 C 156.800 300.105,156.867 298.800,157.439 298.800 C 157.972 298.800,181.759 310.712,183.000 311.601 C 183.220 311.758,189.160 314.820,196.200 318.405 C 203.240 321.990,209.355 325.165,209.789 325.461 C 210.656 326.053,212.000 326.186,212.000 325.679 C 212.000 324.883,215.813 321.554,217.896 320.532 C 223.617 317.726,231.748 319.736,235.000 324.762 C 236.034 326.359,236.119 326.349,240.492 324.058 C 242.531 322.990,247.980 320.175,252.600 317.804 C 257.220 315.433,263.160 312.372,265.800 311.002 C 287.227 299.881,290.310 298.390,290.555 299.026 C 290.690 299.378,290.800 300.911,290.800 302.433 C 290.800 305.772,290.722 305.763,294.723 302.900 C 306.779 294.273,318.969 282.007,326.543 270.885 C 329.299 266.837,329.364 267.540,325.900 263.967 C 312.271 249.908,290.562 238.275,267.800 232.834 C 265.820 232.361,263.660 231.820,263.000 231.631 C 259.413 230.607,242.222 227.992,239.115 227.997 L 237.631 228.000 234.579 234.300 C 231.173 241.331,231.124 241.561,232.431 244.270 C 238.255 256.339,263.872 259.089,277.159 249.072 C 280.053 246.890,280.578 247.032,280.225 249.901 C 278.307 265.459,245.335 270.447,231.979 257.200 L 229.357 254.600 226.979 257.044 C 213.439 270.957,179.519 265.262,178.467 248.900 C 178.269 245.810,178.552 245.758,181.462 248.352 C 193.772 259.324,220.785 256.706,227.243 243.915 L 228.396 241.630 225.024 234.615 L 221.652 227.600 217.726 227.676 C 215.567 227.717,212.720 227.801,211.400 227.862 M315.054 329.433 C 314.423 329.987,313.987 330.520,314.083 330.616 C 314.179 330.713,314.774 330.254,315.404 329.596 C 316.796 328.143,316.616 328.059,315.054 329.433 " stroke="none" fill="#fbfbfa" fill-rule="evenodd"></path><path id="path2" d="M294.400 47.600 C 294.083 48.040,293.543 48.400,293.200 48.400 C 292.857 48.400,292.317 48.760,292.000 49.200 C 291.683 49.640,291.143 50.000,290.800 50.000 C 290.457 50.000,289.917 50.360,289.600 50.800 C 289.283 51.240,288.743 51.600,288.400 51.600 C 288.057 51.600,287.517 51.960,287.200 52.400 C 286.883 52.840,286.420 53.200,286.171 53.200 C 285.922 53.200,285.154 53.740,284.463 54.400 C 283.772 55.060,282.975 55.600,282.692 55.600 C 282.409 55.600,281.917 55.960,281.600 56.400 C 281.283 56.840,280.743 57.200,280.400 57.200 C 280.057 57.200,279.517 57.560,279.200 58.000 C 278.883 58.440,278.291 58.800,277.885 58.800 C 277.357 58.800,277.211 59.004,277.374 59.517 C 277.626 60.312,276.616 61.151,269.800 65.805 C 267.600 67.307,263.550 70.095,260.800 72.000 C 247.436 81.259,248.013 80.903,246.769 80.654 C 245.570 80.414,244.960 81.957,246.000 82.600 C 246.220 82.736,246.400 83.251,246.400 83.744 C 246.400 84.237,246.548 84.811,246.728 85.020 C 246.908 85.229,247.479 86.705,247.996 88.300 C 249.208 92.042,247.561 92.721,262.600 82.277 C 286.261 65.846,286.786 65.497,287.004 66.077 C 287.112 66.365,287.245 76.393,287.300 88.362 L 287.400 110.125 290.600 111.273 C 297.102 113.606,310.496 124.759,318.844 134.790 C 320.030 136.215,321.234 137.632,321.521 137.940 C 323.025 139.554,330.400 150.087,330.400 150.620 C 330.400 150.761,330.763 151.387,331.207 152.010 C 335.306 157.766,341.966 174.071,344.029 183.400 C 345.356 189.398,345.560 190.595,345.297 190.824 C 344.990 191.091,343.014 191.613,339.200 192.435 C 334.052 193.546,332.006 194.980,332.001 197.481 C 331.996 200.938,335.413 202.498,340.277 201.258 C 344.096 200.284,346.069 199.935,346.324 200.189 C 347.769 201.626,346.305 225.624,344.794 225.276 C 344.497 225.208,341.132 225.044,337.315 224.913 L 330.375 224.675 329.187 225.812 C 328.202 226.756,328.000 227.268,328.000 228.821 C 328.000 232.387,330.090 233.573,336.477 233.630 C 341.918 233.678,343.418 234.025,343.308 235.210 C 342.902 239.588,336.863 254.652,332.487 262.200 C 322.566 279.312,309.417 293.583,293.700 304.295 L 290.400 306.544 290.400 312.062 L 290.400 317.579 292.451 316.370 C 295.988 314.284,306.089 307.184,307.200 306.002 C 307.310 305.885,308.390 304.994,309.600 304.022 C 312.437 301.743,325.013 289.261,326.673 287.076 C 327.374 286.154,328.280 285.040,328.689 284.600 C 330.807 282.316,336.981 273.567,339.414 269.400 C 342.895 263.440,348.000 253.083,348.000 251.983 C 348.000 251.766,348.159 251.277,348.353 250.895 C 349.435 248.768,351.071 243.953,352.349 239.136 C 353.625 234.325,353.025 234.735,358.348 235.038 C 361.376 235.211,363.220 235.495,363.631 235.852 C 364.356 236.481,367.600 236.602,367.600 236.000 C 367.600 235.780,367.878 235.600,368.218 235.600 C 371.019 235.600,371.861 229.834,369.416 227.389 L 368.032 226.005 363.316 226.238 C 360.722 226.367,357.880 226.310,357.000 226.113 C 355.168 225.703,355.259 226.349,355.968 218.800 C 356.331 214.937,356.471 205.518,356.255 199.446 C 356.201 197.929,356.243 197.880,358.000 197.405 C 362.505 196.188,363.926 195.984,366.110 196.241 C 367.713 196.429,368.400 196.374,368.400 196.055 C 368.400 195.791,369.071 195.600,370.000 195.600 C 370.880 195.600,371.600 195.420,371.600 195.200 C 371.600 194.980,371.883 194.800,372.229 194.800 C 373.027 194.800,374.000 193.840,374.000 193.052 C 374.000 192.719,374.180 192.336,374.400 192.200 C 374.922 191.878,374.922 188.400,374.400 188.400 C 374.180 188.400,374.000 188.117,374.000 187.771 C 374.000 186.963,373.037 186.000,372.229 186.000 C 371.883 186.000,371.600 185.820,371.600 185.600 C 371.600 185.378,370.532 185.200,369.195 185.200 C 366.978 185.200,366.000 185.491,364.400 186.626 C 364.070 186.860,362.810 187.276,361.600 187.551 C 360.390 187.826,358.543 188.254,357.497 188.502 C 355.061 189.079,354.992 188.997,354.040 184.392 C 352.771 178.248,350.619 170.655,349.224 167.400 C 349.035 166.960,348.651 165.970,348.370 165.200 C 346.977 161.385,342.917 152.924,340.722 149.259 C 339.885 147.862,339.200 146.635,339.200 146.534 C 339.200 146.008,331.590 135.226,328.580 131.488 C 325.179 127.263,316.969 118.666,312.994 115.166 C 310.095 112.615,306.817 109.890,305.843 109.223 C 305.379 108.906,304.910 108.546,304.800 108.423 C 304.385 107.960,301.309 105.684,298.905 104.061 C 297.487 103.104,296.314 101.993,296.188 101.488 C 295.705 99.550,296.180 72.273,296.700 72.100 C 297.086 71.971,297.200 69.065,297.200 59.367 L 297.200 46.800 296.088 46.800 C 295.435 46.800,294.739 47.130,294.400 47.600 M67.600 73.200 C 67.600 74.080,67.420 74.800,67.200 74.800 C 66.958 74.800,66.800 76.533,66.800 79.200 C 66.800 81.867,66.642 83.600,66.400 83.600 C 66.158 83.600,66.000 85.325,66.000 87.976 C 66.000 90.463,65.827 92.460,65.600 92.600 C 65.371 92.742,65.200 94.804,65.200 97.424 C 65.200 100.208,65.043 102.000,64.800 102.000 C 64.580 102.000,64.400 102.630,64.400 103.400 C 64.400 104.170,64.599 104.800,64.842 104.800 C 65.301 104.800,65.180 107.912,64.401 116.200 C 64.194 118.400,63.832 122.450,63.597 125.200 C 63.362 127.950,63.001 132.090,62.794 134.400 C 62.357 139.277,61.744 146.264,61.180 152.800 C 60.249 163.567,59.896 166.308,59.196 168.200 C 58.789 169.300,58.064 171.550,57.586 173.200 C 57.108 174.850,56.573 176.650,56.397 177.200 C 56.099 178.130,55.799 179.363,54.814 183.700 C 53.742 188.423,52.909 194.284,52.613 199.200 C 52.486 201.290,52.276 204.124,52.145 205.497 L 51.907 207.994 48.500 207.920 C 45.137 207.848,45.077 207.864,43.955 209.120 C 40.561 212.918,43.493 216.728,49.851 216.782 C 52.390 216.804,52.634 217.105,52.957 220.600 C 53.462 226.084,54.006 229.185,55.994 237.928 C 56.597 240.577,56.809 240.419,52.126 240.805 C 45.615 241.341,44.913 241.533,43.585 243.145 C 41.737 245.387,42.497 248.646,45.100 249.640 C 46.141 250.037,57.601 249.494,58.383 249.010 C 58.892 248.696,59.851 249.733,60.409 251.200 C 63.580 259.534,73.806 277.970,76.384 280.000 C 76.524 280.110,77.071 280.830,77.600 281.600 C 78.129 282.370,78.668 283.090,78.798 283.200 C 78.928 283.310,79.899 284.480,80.956 285.800 C 90.720 297.990,104.674 309.613,121.200 319.322 C 123.184 320.487,133.465 325.652,135.607 326.559 C 136.593 326.977,138.120 327.632,139.000 328.015 C 141.979 329.313,146.095 330.836,150.356 332.217 C 152.690 332.973,155.105 333.762,155.723 333.970 C 157.200 334.467,157.253 334.278,157.114 328.986 L 157.000 324.623 152.200 322.968 C 126.294 314.038,105.191 299.809,88.773 280.200 C 87.115 278.220,85.327 275.970,84.799 275.200 C 84.271 274.430,83.725 273.710,83.587 273.600 C 83.213 273.303,79.568 267.806,77.618 264.600 C 76.681 263.060,74.660 259.190,73.126 256.000 C 71.592 252.810,70.171 249.887,69.968 249.505 C 69.332 248.306,69.527 248.168,72.584 247.655 C 77.447 246.838,79.229 243.435,76.432 240.306 L 75.265 239.000 70.853 239.116 L 66.442 239.232 65.976 237.516 C 65.720 236.572,65.358 235.350,65.171 234.800 C 64.358 232.401,63.156 225.802,62.561 220.471 L 62.279 217.943 66.127 218.225 C 71.805 218.642,73.600 217.591,73.600 213.850 C 73.600 210.817,71.988 209.830,66.331 209.398 C 61.250 209.010,61.427 209.303,61.965 202.174 C 62.775 191.421,64.242 183.665,67.217 174.400 C 67.677 172.970,68.221 171.395,68.426 170.900 C 69.257 168.900,69.722 167.761,70.020 167.000 C 70.192 166.560,70.535 163.950,70.781 161.200 C 71.027 158.450,71.399 154.310,71.608 152.000 C 71.816 149.690,72.175 145.280,72.405 142.200 C 72.636 139.120,72.920 135.610,73.037 134.400 C 73.154 133.190,73.417 130.220,73.622 127.800 C 73.827 125.380,74.184 121.240,74.416 118.600 C 74.647 115.960,74.999 111.910,75.198 109.600 C 75.397 107.290,75.768 103.060,76.021 100.200 C 76.274 97.340,76.598 93.664,76.741 92.031 C 77.018 88.860,77.378 88.374,78.618 89.494 C 79.048 89.882,80.390 91.008,81.600 91.995 C 82.810 92.981,83.890 93.884,84.000 94.000 C 84.110 94.116,85.188 95.019,86.396 96.005 C 87.604 96.992,89.044 98.186,89.596 98.657 C 95.141 103.392,117.918 122.146,118.305 122.295 C 118.892 122.521,124.013 118.159,123.974 117.466 C 123.960 117.210,120.983 114.570,117.358 111.600 C 113.733 108.630,110.459 105.929,110.083 105.598 C 109.708 105.266,107.690 103.579,105.600 101.849 C 103.510 100.119,101.348 98.320,100.796 97.852 C 100.244 97.383,98.804 96.191,97.596 95.202 C 96.388 94.213,95.203 93.223,94.963 93.002 C 94.723 92.781,92.248 90.730,89.463 88.443 C 86.678 86.157,84.400 84.038,84.400 83.733 C 84.400 83.096,81.027 79.600,80.413 79.600 C 80.188 79.600,79.085 78.700,77.961 77.600 C 76.838 76.500,75.743 75.600,75.528 75.600 C 75.313 75.600,74.446 74.880,73.600 74.000 C 72.754 73.120,71.779 72.400,71.431 72.400 C 71.084 72.400,70.800 72.220,70.800 72.000 C 70.800 71.780,70.080 71.600,69.200 71.600 L 67.600 71.600 67.600 73.200 M178.955 173.562 C 172.205 177.678,171.591 196.860,178.013 203.012 C 179.792 204.717,182.608 204.717,184.387 203.012 C 193.000 194.761,188.066 168.007,178.955 173.562 M270.923 173.699 C 268.692 175.284,267.300 177.919,266.011 183.000 C 262.979 194.945,270.451 208.730,276.697 202.714 C 285.240 194.485,279.843 167.362,270.923 173.699 M219.092 220.241 C 218.715 220.618,219.041 221.353,223.606 230.434 C 224.224 231.662,225.486 234.272,226.410 236.234 C 227.334 238.195,228.430 240.509,228.845 241.375 C 229.752 243.268,229.760 243.347,229.018 243.062 C 228.622 242.910,228.145 243.422,227.524 244.667 C 221.034 257.662,192.810 259.821,180.500 248.264 L 179.200 247.043 179.200 249.126 C 179.200 257.602,190.407 264.184,204.800 264.161 C 215.958 264.143,225.321 260.231,228.714 254.168 C 229.086 253.504,229.404 253.723,231.752 256.259 C 243.880 269.358,275.106 265.829,279.456 250.868 C 280.289 248.000,279.802 247.703,277.395 249.614 C 265.240 259.263,240.674 257.368,232.974 246.188 C 230.004 241.876,229.852 242.531,237.275 227.623 C 239.187 223.784,240.661 220.499,240.552 220.322 C 240.324 219.953,219.459 219.875,219.092 220.241 M210.200 339.964 L 209.000 340.600 210.540 340.727 C 212.329 340.874,212.787 340.596,211.976 339.855 C 211.498 339.418,211.195 339.436,210.200 339.964 " stroke="none" fill="#3d2d54" fill-rule="evenodd"></path><path id="path3" d="M282.600 68.443 C 278.083 71.561,270.687 76.676,263.000 82.001 C 260.140 83.982,255.825 86.950,253.411 88.596 C 250.094 90.858,249.019 91.803,249.011 92.466 C 249.003 93.138,248.577 93.500,247.200 94.006 C 244.767 94.902,243.943 95.214,243.000 95.599 C 241.660 96.145,233.540 99.228,231.200 100.078 C 229.990 100.518,228.640 101.023,228.200 101.200 C 223.949 102.911,206.264 108.920,198.600 111.257 C 197.060 111.727,194.810 112.422,193.600 112.802 C 191.296 113.526,190.133 113.858,185.200 115.200 C 181.039 116.332,179.243 116.806,177.500 117.233 C 176.675 117.435,175.325 117.769,174.500 117.975 C 173.675 118.181,172.190 118.528,171.200 118.747 C 170.210 118.965,168.500 119.349,167.400 119.600 C 163.902 120.397,162.266 120.735,159.600 121.208 C 145.639 123.687,141.033 124.152,130.185 124.177 L 120.570 124.200 118.785 122.803 C 117.186 121.552,101.702 108.787,99.196 106.654 C 98.644 106.184,97.204 104.992,95.996 104.005 C 94.788 103.019,93.710 102.116,93.600 102.000 C 93.490 101.884,92.410 100.984,91.200 100.000 C 89.990 99.016,88.910 98.116,88.800 98.000 C 88.690 97.884,87.610 96.984,86.400 96.000 C 85.190 95.016,84.110 94.112,84.000 93.991 C 83.890 93.870,82.387 92.626,80.660 91.227 C 77.134 88.371,76.817 88.415,76.806 91.773 C 76.803 92.858,76.629 95.288,76.421 97.173 C 76.212 99.058,75.847 102.940,75.609 105.800 C 75.371 108.660,75.000 112.980,74.783 115.400 C 74.080 123.246,73.032 135.268,72.394 142.800 C 71.951 148.042,71.528 152.862,70.781 161.200 C 70.535 163.950,70.168 166.605,69.967 167.100 C 69.546 168.132,68.845 169.835,68.360 171.000 C 68.177 171.440,67.647 173.060,67.183 174.600 C 66.718 176.140,66.186 177.850,66.001 178.400 C 64.282 183.497,62.671 193.090,61.973 202.383 C 61.455 209.288,61.284 209.013,66.331 209.398 C 71.988 209.830,73.600 210.817,73.600 213.850 C 73.600 217.591,71.805 218.642,66.127 218.225 L 62.279 217.943 62.561 220.471 C 63.156 225.802,64.358 232.401,65.171 234.800 C 65.358 235.350,65.720 236.572,65.976 237.516 L 66.442 239.232 70.853 239.116 L 75.265 239.000 76.432 240.306 C 79.591 243.840,76.397 248.000,70.527 248.000 C 69.877 248.000,69.586 248.179,69.713 248.500 C 69.823 248.775,70.235 249.810,70.629 250.800 C 73.599 258.259,80.130 269.333,85.727 276.400 C 91.761 284.017,103.385 296.000,104.741 296.000 C 104.955 296.000,105.259 295.235,105.416 294.300 C 107.894 279.591,120.723 262.819,138.796 250.661 C 149.219 243.649,166.599 236.213,180.400 232.860 C 185.456 231.632,190.671 230.524,193.600 230.056 C 204.390 228.330,206.859 228.060,214.700 227.753 C 222.481 227.448,222.143 227.662,220.431 224.128 C 218.348 219.829,217.472 220.215,229.573 220.093 C 235.388 220.034,240.284 220.124,240.452 220.293 C 240.619 220.462,240.046 222.038,239.178 223.796 C 237.215 227.772,237.210 228.001,239.100 227.997 C 242.221 227.992,259.402 230.604,263.000 231.631 C 263.660 231.820,265.820 232.361,267.800 232.834 C 290.647 238.295,312.300 249.920,326.013 264.087 C 329.774 267.973,328.971 268.207,332.481 262.200 C 336.793 254.822,342.902 239.593,343.308 235.210 C 343.419 234.013,341.917 233.677,336.246 233.630 C 330.029 233.578,328.000 232.390,328.000 228.801 C 328.000 227.273,328.212 226.696,329.100 225.799 L 330.200 224.690 337.844 224.941 L 345.488 225.192 345.950 222.296 C 346.939 216.090,347.185 201.046,346.311 200.177 C 346.153 200.019,345.253 200.082,344.311 200.317 C 343.370 200.552,341.785 200.949,340.789 201.199 C 336.517 202.273,333.686 201.699,332.566 199.534 C 330.769 196.059,332.882 193.798,339.200 192.435 C 345.859 190.999,345.799 191.034,345.265 188.949 C 345.048 188.097,344.666 186.410,344.418 185.200 C 342.361 175.178,335.590 158.165,331.207 152.010 C 330.763 151.387,330.400 150.761,330.400 150.620 C 330.400 150.087,323.025 139.554,321.521 137.940 C 321.234 137.632,320.030 136.215,318.844 134.790 C 310.496 124.759,297.102 113.606,290.600 111.273 L 287.400 110.125 287.297 88.179 C 287.240 76.109,287.060 66.109,286.897 65.958 C 286.733 65.806,284.800 66.925,282.600 68.443 M104.920 76.800 C 104.920 78.010,104.995 78.505,105.087 77.900 C 105.178 77.295,105.178 76.305,105.087 75.700 C 104.995 75.095,104.920 75.590,104.920 76.800 M237.600 87.196 C 233.310 88.915,229.459 90.433,229.043 90.570 C 228.626 90.707,228.388 90.921,228.512 91.046 C 228.754 91.288,245.138 84.931,245.780 84.346 C 246.504 83.687,245.401 84.071,237.600 87.196 M224.200 92.401 C 222.660 93.024,220.541 93.845,219.491 94.225 C 218.441 94.605,217.666 95.000,217.769 95.103 C 217.952 95.285,226.407 92.243,227.600 91.565 C 228.953 90.797,226.943 91.291,224.200 92.401 M214.600 96.000 C 213.720 96.407,213.270 96.741,213.600 96.741 C 213.930 96.741,214.920 96.407,215.800 96.000 C 216.680 95.593,217.130 95.259,216.800 95.259 C 216.470 95.259,215.480 95.593,214.600 96.000 M202.853 99.933 C 197.932 101.602,194.071 103.024,194.272 103.091 C 194.651 103.217,212.348 97.385,212.722 97.011 C 213.237 96.496,211.231 97.090,202.853 99.933 M190.478 103.895 C 189.531 104.222,188.837 104.570,188.935 104.668 C 189.140 104.873,193.600 103.633,193.600 103.372 C 193.600 103.061,192.229 103.291,190.478 103.895 M186.200 105.199 C 185.760 105.388,184.860 105.668,184.200 105.821 C 183.540 105.974,183.209 106.176,183.464 106.271 C 183.945 106.449,188.400 105.276,188.400 104.972 C 188.400 104.690,187.059 104.829,186.200 105.199 M180.600 106.799 C 180.160 106.988,179.260 107.268,178.600 107.421 C 177.940 107.574,177.609 107.776,177.864 107.871 C 178.345 108.049,182.800 106.876,182.800 106.572 C 182.800 106.290,181.459 106.429,180.600 106.799 M175.000 108.400 L 174.200 108.744 175.000 108.744 C 175.440 108.744,176.160 108.589,176.600 108.400 L 177.400 108.056 176.600 108.056 C 176.160 108.056,175.440 108.211,175.000 108.400 M168.623 109.927 C 166.436 110.489,164.847 111.016,165.093 111.098 C 165.543 111.248,173.612 109.321,173.950 108.983 C 174.324 108.609,172.487 108.935,168.623 109.927 M161.800 111.600 L 161.000 111.944 161.800 111.932 C 162.240 111.926,163.050 111.776,163.600 111.600 L 164.600 111.280 163.600 111.268 C 163.050 111.262,162.240 111.411,161.800 111.600 M157.800 112.400 C 156.706 112.870,158.533 112.870,160.000 112.400 C 160.975 112.088,160.970 112.079,159.800 112.068 C 159.140 112.062,158.240 112.211,157.800 112.400 M153.800 113.200 C 152.706 113.670,154.533 113.670,156.000 113.200 C 156.975 112.888,156.970 112.879,155.800 112.868 C 155.140 112.862,154.240 113.011,153.800 113.200 M149.200 114.000 C 147.801 114.448,150.039 114.448,151.800 114.000 L 153.000 113.695 151.600 113.687 C 150.830 113.683,149.750 113.824,149.200 114.000 M143.800 114.800 L 142.600 115.105 144.000 115.105 C 144.770 115.105,145.940 114.968,146.600 114.800 L 147.800 114.495 146.400 114.495 C 145.630 114.495,144.460 114.632,143.800 114.800 M137.000 115.600 L 135.400 115.886 137.200 115.920 C 138.190 115.939,139.720 115.805,140.600 115.623 L 142.200 115.292 140.400 115.303 C 139.410 115.309,137.880 115.442,137.000 115.600 M123.800 116.400 C 123.518 116.857,127.418 116.863,131.800 116.413 C 134.286 116.158,134.009 116.119,129.324 116.063 C 126.167 116.025,123.948 116.161,123.800 116.400 M185.766 165.374 C 203.944 170.109,209.908 192.760,196.400 205.760 C 180.976 220.604,156.000 209.951,156.000 188.527 C 156.000 173.016,170.827 161.483,185.766 165.374 M277.818 165.388 C 298.307 170.725,302.452 197.301,284.613 208.953 C 269.071 219.105,248.000 207.392,248.000 188.600 C 248.000 173.158,262.955 161.517,277.818 165.388 M283.196 302.047 C 279.348 304.028,272.150 307.732,267.200 310.278 C 254.949 316.577,245.807 321.295,240.886 323.858 C 236.070 326.365,236.041 326.370,235.000 324.762 C 231.748 319.736,223.617 317.726,217.896 320.532 C 215.813 321.554,212.000 324.883,212.000 325.679 C 212.000 326.188,210.654 326.052,209.789 325.456 C 207.934 324.179,193.898 317.197,194.600 317.901 C 195.185 318.489,210.694 326.400,211.260 326.400 C 211.524 326.400,212.744 325.356,213.970 324.081 C 219.896 317.918,230.209 318.377,234.496 324.995 C 235.884 327.137,234.378 327.749,258.600 315.201 C 261.460 313.719,267.400 310.659,271.800 308.400 C 276.200 306.142,282.004 303.148,284.698 301.747 C 290.787 298.581,290.384 298.515,290.481 302.700 L 290.563 306.200 290.698 302.894 C 290.902 297.879,291.219 297.915,283.196 302.047 M156.894 311.500 L 156.988 324.200 157.100 312.014 C 157.162 305.312,157.369 299.671,157.560 299.480 C 157.757 299.283,159.945 300.189,162.613 301.573 C 165.201 302.916,167.401 303.932,167.502 303.832 C 167.753 303.580,158.161 298.800,157.406 298.800 C 156.875 298.800,156.812 300.379,156.894 311.500 M168.220 304.352 C 168.429 304.546,172.560 306.733,177.400 309.212 C 182.240 311.691,187.891 314.596,189.958 315.668 C 192.026 316.740,193.792 317.542,193.883 317.450 C 193.975 317.359,189.403 314.896,183.725 311.977 C 178.046 309.059,172.260 306.070,170.867 305.335 C 168.329 303.997,167.509 303.693,168.220 304.352 " stroke="none" fill="#f3cb8b" fill-rule="evenodd"></path><path id="path4" d="M232.919 43.868 C 232.814 44.141,233.205 45.678,233.787 47.283 C 234.370 48.887,235.470 52.090,236.231 54.400 C 236.992 56.710,237.792 58.913,238.008 59.295 C 238.223 59.677,238.400 60.264,238.400 60.600 C 238.400 60.936,238.574 61.523,238.786 61.905 C 238.998 62.287,239.728 64.310,240.408 66.400 C 241.087 68.490,241.806 70.560,242.006 71.000 C 242.206 71.440,242.988 73.690,243.744 76.000 C 245.973 82.809,244.797 83.091,261.000 71.860 C 263.860 69.877,268.360 66.764,271.000 64.942 C 277.488 60.464,277.688 60.293,277.377 59.484 C 277.232 59.108,276.774 58.800,276.357 58.800 C 275.941 58.800,275.600 58.620,275.600 58.400 C 275.600 58.180,275.240 58.000,274.800 58.000 C 274.360 58.000,274.000 57.820,274.000 57.600 C 274.000 57.380,273.640 57.200,273.200 57.200 C 272.760 57.200,272.400 57.020,272.400 56.800 C 272.400 56.580,272.040 56.400,271.600 56.400 C 271.160 56.400,270.800 56.220,270.800 56.000 C 270.800 55.780,270.440 55.600,270.000 55.600 C 269.560 55.600,269.200 55.420,269.200 55.200 C 269.200 54.980,268.840 54.800,268.400 54.800 C 267.960 54.800,267.600 54.620,267.600 54.400 C 267.600 54.180,267.240 54.000,266.800 54.000 C 266.360 54.000,266.000 53.820,266.000 53.600 C 266.000 53.380,265.561 53.200,265.024 53.200 C 264.487 53.200,263.936 53.020,263.800 52.800 C 263.664 52.580,263.203 52.400,262.776 52.400 C 262.349 52.400,262.000 52.220,262.000 52.000 C 262.000 51.780,261.651 51.600,261.224 51.600 C 260.797 51.600,260.336 51.420,260.200 51.200 C 260.064 50.980,259.513 50.800,258.976 50.800 C 258.439 50.800,258.000 50.620,258.000 50.400 C 258.000 50.180,257.561 50.000,257.024 50.000 C 256.487 50.000,255.936 49.820,255.800 49.600 C 255.664 49.380,255.023 49.200,254.376 49.200 C 253.729 49.200,253.200 49.020,253.200 48.800 C 253.200 48.580,252.851 48.400,252.424 48.400 C 251.997 48.400,251.536 48.220,251.400 48.000 C 251.264 47.780,250.713 47.600,250.176 47.600 C 249.639 47.600,249.200 47.420,249.200 47.200 C 249.200 46.980,248.480 46.800,247.600 46.800 C 246.720 46.800,246.000 46.620,246.000 46.400 C 246.000 46.180,245.471 46.000,244.824 46.000 C 244.177 46.000,243.536 45.820,243.400 45.600 C 243.264 45.380,242.533 45.200,241.776 45.200 C 241.019 45.200,240.400 45.020,240.400 44.800 C 240.400 44.580,239.716 44.400,238.880 44.400 C 238.044 44.400,237.189 44.238,236.980 44.041 C 236.347 43.443,233.134 43.306,232.919 43.868 M103.006 68.124 C 102.569 68.386,101.918 68.915,101.559 69.300 C 101.200 69.685,100.652 70.000,100.341 70.000 C 100.031 70.000,99.517 70.360,99.200 70.800 C 98.883 71.240,98.420 71.600,98.171 71.600 C 97.922 71.600,97.197 72.097,96.559 72.704 C 95.922 73.312,94.770 74.248,94.000 74.785 C 93.230 75.323,92.309 76.086,91.953 76.481 C 91.597 76.876,91.107 77.200,90.863 77.200 C 90.190 77.200,84.400 83.019,84.400 83.695 C 84.400 84.021,86.678 86.157,89.463 88.443 C 92.248 90.730,94.723 92.781,94.963 93.002 C 95.203 93.223,96.390 94.210,97.600 95.196 C 98.810 96.182,99.890 97.084,100.000 97.200 C 100.746 97.987,104.458 100.873,104.567 100.751 C 104.770 100.525,105.096 68.679,104.901 68.100 C 104.695 67.487,104.054 67.495,103.006 68.124 M296.800 71.991 C 296.189 72.377,295.631 99.252,296.188 101.488 C 296.314 101.993,297.487 103.104,298.905 104.061 C 301.309 105.684,304.385 107.960,304.800 108.423 C 304.910 108.546,305.379 108.906,305.843 109.223 C 314.154 114.912,327.751 129.453,335.626 141.075 C 337.592 143.976,339.200 146.433,339.200 146.534 C 339.200 146.635,339.885 147.862,340.722 149.259 C 342.917 152.924,346.977 161.385,348.370 165.200 C 348.651 165.970,349.035 166.960,349.224 167.400 C 350.619 170.655,352.771 178.248,354.040 184.392 C 354.996 189.020,355.050 189.082,357.597 188.477 C 358.698 188.214,360.545 187.789,361.700 187.530 C 364.402 186.926,365.587 185.912,364.893 184.801 C 364.622 184.366,364.400 183.018,364.400 181.805 C 364.400 180.592,364.220 179.600,364.000 179.600 C 363.778 179.600,363.600 178.533,363.600 177.200 C 363.600 175.867,363.422 174.800,363.200 174.800 C 362.980 174.800,362.800 174.091,362.800 173.224 C 362.800 172.357,362.620 171.536,362.400 171.400 C 362.180 171.264,362.000 170.353,362.000 169.376 C 362.000 168.399,361.820 167.600,361.600 167.600 C 361.380 167.600,361.200 166.981,361.200 166.224 C 361.200 165.467,361.020 164.736,360.800 164.600 C 360.580 164.464,360.400 163.834,360.400 163.200 C 360.400 162.566,360.220 161.936,360.000 161.800 C 359.780 161.664,359.600 161.034,359.600 160.400 C 359.600 159.766,359.420 159.136,359.200 159.000 C 358.980 158.864,358.800 158.223,358.800 157.576 C 358.800 156.929,358.620 156.400,358.400 156.400 C 358.180 156.400,358.000 155.860,358.000 155.200 C 358.000 154.540,357.820 154.000,357.600 154.000 C 357.380 154.000,357.200 153.460,357.200 152.800 C 357.200 152.140,357.020 151.600,356.800 151.600 C 356.580 151.600,356.400 151.060,356.400 150.400 C 356.400 149.740,356.220 149.200,356.000 149.200 C 355.780 149.200,355.600 148.851,355.600 148.424 C 355.600 147.997,355.420 147.536,355.200 147.400 C 354.980 147.264,354.800 146.713,354.800 146.176 C 354.800 145.639,354.620 145.200,354.400 145.200 C 354.180 145.200,354.000 144.761,354.000 144.224 C 354.000 143.687,353.820 143.136,353.600 143.000 C 353.380 142.864,353.200 142.403,353.200 141.976 C 353.200 141.549,353.020 141.200,352.800 141.200 C 352.580 141.200,352.400 140.840,352.400 140.400 C 352.400 139.960,352.220 139.600,352.000 139.600 C 351.780 139.600,351.600 139.240,351.600 138.800 C 351.600 138.360,351.420 138.000,351.200 138.000 C 350.980 138.000,350.800 137.658,350.800 137.241 C 350.800 136.823,350.260 135.455,349.600 134.200 C 348.940 132.945,348.400 131.682,348.400 131.393 C 348.400 131.103,348.265 130.807,348.100 130.733 C 347.724 130.566,346.425 128.436,346.129 127.500 C 346.007 127.115,345.748 126.800,345.553 126.800 C 345.359 126.800,345.200 126.455,345.200 126.033 C 345.200 125.612,345.065 125.207,344.900 125.133 C 344.735 125.060,344.167 124.145,343.637 123.100 C 343.108 122.055,342.523 121.200,342.337 121.200 C 342.152 121.200,342.000 120.922,342.000 120.583 C 342.000 120.244,341.640 119.580,341.200 119.108 C 340.760 118.636,340.400 118.013,340.400 117.725 C 340.400 117.436,340.220 117.200,340.000 117.200 C 339.780 117.200,339.600 116.880,339.600 116.488 C 339.600 116.097,339.240 115.517,338.800 115.200 C 338.360 114.883,338.000 114.420,338.000 114.171 C 338.000 113.922,337.460 113.154,336.800 112.463 C 336.140 111.772,335.600 110.975,335.600 110.692 C 335.600 110.409,335.240 109.917,334.800 109.600 C 334.360 109.283,334.000 108.775,334.000 108.472 C 334.000 108.169,333.460 107.417,332.800 106.800 C 332.140 106.183,331.600 105.508,331.600 105.299 C 331.600 105.090,331.103 104.397,330.496 103.759 C 329.888 103.122,328.949 101.970,328.409 101.200 C 327.868 100.430,326.784 99.170,326.000 98.400 C 325.216 97.630,324.135 96.370,323.598 95.600 C 322.434 93.932,310.469 82.000,309.960 82.000 C 309.765 82.000,308.508 80.920,307.168 79.600 C 305.827 78.280,304.552 77.200,304.334 77.200 C 304.116 77.200,303.246 76.480,302.400 75.600 C 301.554 74.720,300.651 74.000,300.392 74.000 C 300.133 74.000,299.417 73.460,298.800 72.800 C 297.537 71.448,297.612 71.478,296.800 71.991 M246.012 84.120 C 245.985 84.822,248.521 91.600,248.810 91.600 C 248.981 91.600,248.637 90.205,248.048 88.500 C 247.030 85.557,246.039 83.425,246.012 84.120 M63.600 105.004 C 63.600 105.336,63.060 106.172,62.400 106.863 C 61.740 107.554,61.200 108.322,61.200 108.571 C 61.200 108.820,60.840 109.283,60.400 109.600 C 59.960 109.917,59.600 110.425,59.600 110.728 C 59.600 111.031,59.060 111.783,58.400 112.400 C 57.740 113.017,57.200 113.809,57.200 114.160 C 57.200 114.512,57.020 114.800,56.800 114.800 C 56.580 114.800,56.400 115.036,56.400 115.325 C 56.400 115.613,56.040 116.236,55.600 116.708 C 55.160 117.180,54.800 117.762,54.800 118.000 C 54.800 118.238,54.440 118.820,54.000 119.292 C 53.560 119.764,53.200 120.387,53.200 120.675 C 53.200 120.964,53.020 121.200,52.800 121.200 C 52.580 121.200,52.400 121.478,52.400 121.817 C 52.400 122.156,52.040 122.820,51.600 123.292 C 51.160 123.764,50.800 124.387,50.800 124.675 C 50.800 124.964,50.620 125.200,50.400 125.200 C 50.180 125.200,50.000 125.560,50.000 126.000 C 50.000 126.440,49.820 126.800,49.600 126.800 C 49.380 126.800,49.200 127.160,49.200 127.600 C 49.200 128.040,49.020 128.400,48.800 128.400 C 48.580 128.400,48.400 128.760,48.400 129.200 C 48.400 129.640,48.265 130.001,48.100 130.003 C 47.741 130.007,46.800 131.944,46.800 132.680 C 46.800 132.966,46.665 133.201,46.500 133.203 C 46.141 133.207,45.200 135.144,45.200 135.880 C 45.200 136.166,45.020 136.400,44.800 136.400 C 44.580 136.400,44.400 136.760,44.400 137.200 C 44.400 137.640,44.220 138.000,44.000 138.000 C 43.780 138.000,43.600 138.360,43.600 138.800 C 43.600 139.240,43.420 139.600,43.200 139.600 C 42.980 139.600,42.800 139.960,42.800 140.400 C 42.800 140.840,42.620 141.200,42.400 141.200 C 42.180 141.200,42.000 141.740,42.000 142.400 C 42.000 143.060,41.820 143.600,41.600 143.600 C 41.380 143.600,41.200 143.949,41.200 144.376 C 41.200 144.803,41.020 145.264,40.800 145.400 C 40.580 145.536,40.400 146.087,40.400 146.624 C 40.400 147.161,40.220 147.600,40.000 147.600 C 39.780 147.600,39.600 147.960,39.600 148.400 C 39.600 148.840,39.420 149.200,39.200 149.200 C 38.980 149.200,38.800 149.729,38.800 150.376 C 38.800 151.023,38.620 151.664,38.400 151.800 C 38.180 151.936,38.000 152.476,38.000 153.000 C 38.000 153.524,37.820 154.064,37.600 154.200 C 37.380 154.336,37.200 154.887,37.200 155.424 C 37.200 155.961,37.020 156.400,36.800 156.400 C 36.580 156.400,36.400 156.929,36.400 157.576 C 36.400 158.223,36.220 158.864,36.000 159.000 C 35.780 159.136,35.600 159.867,35.600 160.624 C 35.600 161.381,35.420 162.000,35.200 162.000 C 34.980 162.000,34.800 162.529,34.800 163.176 C 34.800 163.823,34.620 164.464,34.400 164.600 C 34.180 164.736,34.000 165.467,34.000 166.224 C 34.000 166.981,33.820 167.600,33.600 167.600 C 33.380 167.600,33.200 168.500,33.200 169.600 C 33.200 170.700,33.020 171.600,32.800 171.600 C 32.580 171.600,32.400 172.309,32.400 173.176 C 32.400 174.043,32.220 174.864,32.000 175.000 C 31.780 175.136,31.600 176.227,31.600 177.424 C 31.600 178.621,31.420 179.600,31.200 179.600 C 30.971 179.600,30.800 180.800,30.800 182.400 C 30.800 184.000,30.629 185.200,30.400 185.200 C 30.167 185.200,30.000 186.525,30.000 188.376 C 30.000 190.123,29.820 191.664,29.600 191.800 C 29.344 191.958,29.200 197.871,29.200 208.224 C 29.200 218.741,29.340 224.400,29.600 224.400 C 29.835 224.400,30.000 225.792,30.000 227.776 C 30.000 229.633,30.180 231.264,30.400 231.400 C 30.620 231.536,30.800 232.706,30.800 234.000 C 30.800 235.294,30.980 236.464,31.200 236.600 C 31.420 236.736,31.600 237.726,31.600 238.800 C 31.600 239.874,31.780 240.864,32.000 241.000 C 32.220 241.136,32.400 242.036,32.400 243.000 C 32.400 243.964,32.580 244.864,32.800 245.000 C 33.020 245.136,33.200 245.957,33.200 246.824 C 33.200 247.691,33.380 248.400,33.600 248.400 C 33.820 248.400,34.000 249.120,34.000 250.000 C 34.000 250.880,34.180 251.600,34.400 251.600 C 34.620 251.600,34.800 252.219,34.800 252.976 C 34.800 253.733,34.980 254.464,35.200 254.600 C 35.420 254.736,35.600 255.377,35.600 256.024 C 35.600 256.671,35.780 257.200,36.000 257.200 C 36.220 257.200,36.400 257.729,36.400 258.376 C 36.400 259.023,36.580 259.664,36.800 259.800 C 37.020 259.936,37.200 260.476,37.200 261.000 C 37.200 261.524,37.380 262.064,37.600 262.200 C 37.820 262.336,38.000 262.887,38.000 263.424 C 38.000 263.961,38.180 264.400,38.400 264.400 C 38.620 264.400,38.800 264.940,38.800 265.600 C 38.800 266.260,38.980 266.800,39.200 266.800 C 39.420 266.800,39.600 267.340,39.600 268.000 C 39.600 268.660,39.780 269.200,40.000 269.200 C 40.220 269.200,40.400 269.560,40.400 270.000 C 40.400 270.440,40.580 270.800,40.800 270.800 C 41.020 270.800,41.200 271.239,41.200 271.776 C 41.200 272.313,41.380 272.864,41.600 273.000 C 41.820 273.136,42.000 273.597,42.000 274.024 C 42.000 274.451,42.180 274.800,42.400 274.800 C 42.620 274.800,42.800 275.072,42.800 275.405 C 42.800 275.738,42.980 276.368,43.200 276.805 C 43.420 277.242,43.780 277.958,44.000 278.395 C 44.220 278.832,44.400 279.462,44.400 279.795 C 44.400 280.128,44.580 280.400,44.800 280.400 C 45.020 280.400,45.200 280.760,45.200 281.200 C 45.200 281.640,45.380 282.000,45.600 282.000 C 45.820 282.000,46.000 282.360,46.000 282.800 C 46.000 283.240,46.180 283.600,46.400 283.600 C 46.620 283.600,46.800 283.960,46.800 284.400 C 46.800 284.840,46.980 285.200,47.200 285.200 C 47.420 285.200,47.600 285.560,47.600 286.000 C 47.600 286.440,47.780 286.800,48.000 286.800 C 48.220 286.800,48.400 287.160,48.400 287.600 C 48.400 288.040,48.580 288.400,48.800 288.400 C 49.020 288.400,49.200 288.678,49.200 289.017 C 49.200 289.356,49.560 290.020,50.000 290.492 C 50.440 290.964,50.800 291.587,50.800 291.875 C 50.800 292.164,50.980 292.400,51.200 292.400 C 51.420 292.400,51.600 292.760,51.600 293.200 C 51.600 293.640,51.780 294.000,52.000 294.000 C 52.220 294.000,52.400 294.236,52.400 294.525 C 52.400 294.813,52.760 295.436,53.200 295.908 C 53.640 296.380,54.000 297.004,54.000 297.295 C 54.000 297.586,54.360 298.083,54.800 298.400 C 55.240 298.717,55.600 299.297,55.600 299.688 C 55.600 300.080,55.780 300.400,56.000 300.400 C 56.220 300.400,56.400 300.720,56.400 301.112 C 56.400 301.503,56.760 302.083,57.200 302.400 C 57.640 302.717,58.000 303.180,58.000 303.429 C 58.000 303.678,58.495 304.406,59.100 305.048 C 59.705 305.689,60.455 306.706,60.768 307.307 C 61.080 307.908,61.485 308.400,61.668 308.400 C 61.850 308.400,62.000 308.648,62.000 308.952 C 62.000 309.255,62.720 310.245,63.600 311.152 C 64.480 312.059,65.200 312.959,65.200 313.152 C 65.200 313.345,65.876 314.200,66.702 315.052 C 67.528 315.903,68.652 317.230,69.200 318.000 C 69.747 318.770,71.952 321.163,74.098 323.317 C 76.244 325.471,78.000 327.385,78.000 327.571 C 78.000 327.756,78.459 328.208,79.019 328.576 C 79.579 328.943,81.839 331.033,84.041 333.222 C 86.243 335.410,88.229 337.200,88.454 337.200 C 88.679 337.200,89.554 337.920,90.400 338.800 C 91.246 339.680,92.131 340.400,92.368 340.400 C 92.605 340.400,93.541 341.120,94.448 342.000 C 95.355 342.880,96.305 343.600,96.560 343.600 C 96.815 343.600,97.283 343.960,97.600 344.400 C 97.917 344.840,98.409 345.200,98.692 345.200 C 98.975 345.200,99.772 345.740,100.463 346.400 C 101.154 347.060,101.922 347.600,102.171 347.600 C 102.420 347.600,102.883 347.960,103.200 348.400 C 103.517 348.840,104.057 349.200,104.400 349.200 C 104.743 349.200,105.283 349.560,105.600 350.000 C 105.917 350.440,106.497 350.800,106.888 350.800 C 107.280 350.800,107.600 350.980,107.600 351.200 C 107.600 351.420,107.836 351.600,108.125 351.600 C 108.413 351.600,109.036 351.960,109.508 352.400 C 109.980 352.840,110.644 353.200,110.983 353.200 C 111.322 353.200,111.600 353.380,111.600 353.600 C 111.600 353.820,111.878 354.000,112.217 354.000 C 112.556 354.000,113.220 354.360,113.692 354.800 C 114.164 355.240,114.787 355.600,115.075 355.600 C 115.364 355.600,115.600 355.780,115.600 356.000 C 115.600 356.220,115.960 356.400,116.400 356.400 C 116.840 356.400,117.200 356.580,117.200 356.800 C 117.200 357.020,117.560 357.200,118.000 357.200 C 118.440 357.200,118.800 357.380,118.800 357.600 C 118.800 357.820,119.160 358.000,119.600 358.000 C 120.040 358.000,120.400 358.180,120.400 358.400 C 120.400 358.620,120.760 358.800,121.200 358.800 C 121.640 358.800,122.000 358.980,122.000 359.200 C 122.000 359.420,122.360 359.600,122.800 359.600 C 123.240 359.600,123.600 359.780,123.600 360.000 C 123.600 360.220,123.960 360.400,124.400 360.400 C 124.840 360.400,125.200 360.580,125.200 360.800 C 125.200 361.020,125.560 361.200,126.000 361.200 C 126.440 361.200,126.800 361.380,126.800 361.600 C 126.800 361.820,127.065 362.000,127.388 362.000 C 127.711 362.000,128.617 362.360,129.400 362.800 C 130.183 363.240,131.179 363.600,131.612 363.600 C 132.045 363.600,132.400 363.780,132.400 364.000 C 132.400 364.220,132.760 364.400,133.200 364.400 C 133.640 364.400,134.000 364.580,134.000 364.800 C 134.000 365.020,134.540 365.200,135.200 365.200 C 135.860 365.200,136.400 365.380,136.400 365.600 C 136.400 365.820,136.749 366.000,137.176 366.000 C 137.603 366.000,138.064 366.180,138.200 366.400 C 138.336 366.620,138.887 366.800,139.424 366.800 C 139.961 366.800,140.400 366.980,140.400 367.200 C 140.400 367.420,140.940 367.600,141.600 367.600 C 142.260 367.600,142.800 367.780,142.800 368.000 C 142.800 368.220,143.340 368.400,144.000 368.400 C 144.660 368.400,145.200 368.580,145.200 368.800 C 145.200 369.020,145.740 369.200,146.400 369.200 C 147.060 369.200,147.600 369.380,147.600 369.600 C 147.600 369.820,148.219 370.000,148.976 370.000 C 149.733 370.000,150.464 370.180,150.600 370.400 C 150.736 370.620,151.366 370.800,152.000 370.800 C 152.634 370.800,153.264 370.980,153.400 371.200 C 153.536 371.420,154.267 371.600,155.024 371.600 C 155.781 371.600,156.400 371.780,156.400 372.000 C 156.400 372.220,157.109 372.400,157.976 372.400 C 158.843 372.400,159.664 372.580,159.800 372.800 C 159.936 373.020,160.746 373.200,161.600 373.200 C 162.454 373.200,163.264 373.380,163.400 373.600 C 163.536 373.820,164.526 374.000,165.600 374.000 C 166.674 374.000,167.664 374.180,167.800 374.400 C 167.936 374.620,169.016 374.800,170.200 374.800 C 171.384 374.800,172.464 374.980,172.600 375.200 C 172.736 375.420,174.187 375.600,175.824 375.600 C 177.541 375.600,178.800 375.769,178.800 376.000 C 178.800 376.245,180.725 376.400,183.776 376.400 C 186.513 376.400,188.856 376.567,188.982 376.771 C 189.309 377.300,205.600 377.340,205.600 376.812 C 205.600 376.550,207.558 376.400,211.000 376.400 C 214.333 376.400,216.400 376.247,216.400 376.000 C 216.400 375.769,217.659 375.600,219.376 375.600 C 221.013 375.600,222.464 375.420,222.600 375.200 C 222.736 374.980,223.917 374.800,225.224 374.800 C 226.541 374.800,227.600 374.622,227.600 374.400 C 227.600 374.180,228.489 374.000,229.576 374.000 C 230.663 374.000,231.664 373.820,231.800 373.600 C 231.936 373.380,232.847 373.200,233.824 373.200 C 234.801 373.200,235.600 373.020,235.600 372.800 C 235.600 372.580,236.320 372.400,237.200 372.400 C 238.080 372.400,238.800 372.220,238.800 372.000 C 238.800 371.780,239.520 371.600,240.400 371.600 C 241.280 371.600,242.000 371.420,242.000 371.200 C 242.000 370.980,242.540 370.800,243.200 370.800 C 243.860 370.800,244.400 370.620,244.400 370.400 C 244.400 370.180,245.120 370.000,246.000 370.000 C 246.880 370.000,247.600 369.820,247.600 369.600 C 247.600 369.380,248.140 369.200,248.800 369.200 C 249.460 369.200,250.000 369.020,250.000 368.800 C 250.000 368.580,250.540 368.400,251.200 368.400 C 251.860 368.400,252.400 368.220,252.400 368.000 C 252.400 367.780,252.940 367.600,253.600 367.600 C 254.260 367.600,254.800 367.420,254.800 367.200 C 254.800 366.980,255.340 366.800,256.000 366.800 C 256.660 366.800,257.200 366.620,257.200 366.400 C 257.200 366.180,257.560 366.000,258.000 366.000 C 258.440 366.000,258.800 365.820,258.800 365.600 C 258.800 365.380,259.239 365.200,259.776 365.200 C 260.313 365.200,260.864 365.020,261.000 364.800 C 261.136 364.580,261.597 364.400,262.024 364.400 C 262.451 364.400,262.800 364.220,262.800 364.000 C 262.800 363.780,263.239 363.600,263.776 363.600 C 264.313 363.600,264.864 363.420,265.000 363.200 C 265.136 362.980,265.597 362.800,266.024 362.800 C 266.451 362.800,266.800 362.620,266.800 362.400 C 266.800 362.180,267.160 362.000,267.600 362.000 C 268.040 362.000,268.400 361.820,268.400 361.600 C 268.400 361.380,268.760 361.200,269.200 361.200 C 269.640 361.200,270.000 361.020,270.000 360.800 C 270.000 360.580,270.360 360.400,270.800 360.400 C 271.240 360.400,271.600 360.220,271.600 360.000 C 271.600 359.780,271.960 359.600,272.400 359.600 C 274.118 359.600,273.037 358.404,269.800 356.723 C 267.197 355.371,257.934 350.600,247.400 345.186 C 242.780 342.811,238.460 340.584,237.800 340.237 C 236.184 339.386,235.801 339.433,235.055 340.572 C 234.705 341.106,233.747 342.195,232.927 342.992 C 231.544 344.336,230.896 344.714,227.881 345.944 C 223.955 347.545,217.519 345.895,214.104 342.411 C 211.520 339.775,210.317 339.979,201.464 344.553 C 197.469 346.618,191.320 349.789,187.800 351.600 C 184.280 353.411,178.160 356.566,174.200 358.612 C 161.014 365.422,158.240 366.800,157.723 366.800 C 157.315 366.800,157.188 363.488,157.105 350.715 L 157.000 334.630 156.000 334.152 C 155.450 333.889,153.200 333.108,151.000 332.416 C 147.024 331.165,142.059 329.344,139.000 328.014 C 138.120 327.631,136.593 326.977,135.607 326.559 C 133.465 325.652,123.184 320.487,121.200 319.322 C 104.674 309.613,90.720 297.990,80.956 285.800 C 79.899 284.480,78.928 283.310,78.798 283.200 C 78.668 283.090,78.129 282.370,77.600 281.600 C 77.071 280.830,76.524 280.110,76.384 280.000 C 73.806 277.970,63.580 259.534,60.409 251.200 C 59.851 249.733,58.892 248.696,58.383 249.010 C 57.601 249.494,46.141 250.037,45.100 249.640 C 42.497 248.646,41.737 245.387,43.585 243.145 C 44.913 241.533,45.615 241.341,52.126 240.805 C 56.809 240.419,56.597 240.577,55.994 237.928 C 54.006 229.185,53.462 226.084,52.957 220.600 C 52.634 217.105,52.390 216.804,49.851 216.782 C 43.493 216.728,40.561 212.918,43.955 209.120 C 45.077 207.864,45.137 207.848,48.500 207.920 L 51.907 207.994 52.145 205.497 C 52.276 204.124,52.486 201.290,52.613 199.200 C 52.913 194.217,53.756 188.324,54.842 183.600 C 55.070 182.610,55.441 180.990,55.666 180.000 C 55.892 179.010,56.221 177.750,56.397 177.200 C 56.573 176.650,57.108 174.850,57.586 173.200 C 58.064 171.550,58.789 169.300,59.196 168.200 C 59.896 166.308,60.249 163.567,61.180 152.800 C 61.744 146.264,62.357 139.277,62.794 134.400 C 63.001 132.090,63.362 127.950,63.597 125.200 C 63.832 122.450,64.193 118.400,64.398 116.200 C 65.246 107.121,65.306 105.113,64.740 104.755 C 63.944 104.250,63.600 104.325,63.600 105.004 M124.000 117.381 C 124.000 117.701,122.735 119.051,121.190 120.381 C 119.644 121.712,118.581 122.800,118.828 122.800 C 119.548 122.800,124.292 118.457,124.519 117.590 C 124.632 117.155,124.562 116.800,124.363 116.800 C 124.163 116.800,124.000 117.062,124.000 117.381 M178.492 173.201 C 171.141 177.682,171.072 198.782,178.391 203.993 C 181.068 205.899,184.175 204.839,186.464 201.239 C 192.526 191.705,189.002 172.403,181.200 172.403 C 180.430 172.403,179.211 172.762,178.492 173.201 M270.547 173.216 C 266.667 175.702,264.183 184.404,265.166 192.068 C 267.727 212.042,282.518 207.297,281.495 186.830 C 280.977 176.448,275.715 169.905,270.547 173.216 M183.199 173.400 C 190.109 176.973,190.903 196.770,184.387 203.012 C 182.608 204.717,179.792 204.717,178.013 203.012 C 169.527 194.883,174.113 168.701,183.199 173.400 M276.231 174.148 C 283.736 180.573,282.025 202.943,273.928 204.257 C 269.299 205.008,265.597 198.140,265.602 188.808 C 265.604 184.821,265.783 183.565,266.885 179.800 C 268.604 173.922,272.919 171.313,276.231 174.148 M361.400 196.498 C 355.835 197.942,356.194 197.736,356.255 199.446 C 356.471 205.518,356.331 214.937,355.968 218.800 C 355.272 226.213,355.231 225.746,356.600 226.044 C 357.260 226.188,359.362 226.327,361.271 226.353 L 364.741 226.400 365.371 225.139 C 365.870 224.137,366.000 222.448,366.000 216.939 C 366.000 213.105,366.161 210.000,366.359 210.000 C 366.557 210.000,366.637 209.235,366.538 208.300 C 366.439 207.365,366.232 204.260,366.079 201.400 L 365.800 196.200 364.400 196.141 C 363.630 196.109,362.280 196.269,361.400 196.498 M221.609 227.246 C 221.604 227.382,223.129 230.673,224.998 234.561 L 228.396 241.630 227.243 243.915 C 220.785 256.706,193.772 259.324,181.462 248.352 C 178.552 245.758,178.269 245.810,178.467 248.900 C 179.519 265.262,213.439 270.957,226.979 257.044 L 229.357 254.600 231.979 257.200 C 245.335 270.447,278.307 265.459,280.225 249.901 C 280.578 247.032,280.053 246.890,277.159 249.072 C 263.130 259.648,236.451 255.983,231.815 242.844 C 231.264 241.280,231.266 241.274,234.459 234.600 C 236.217 230.927,237.564 227.830,237.453 227.719 C 237.259 227.525,231.571 239.002,231.054 240.630 C 230.415 242.642,233.069 247.227,236.283 249.663 C 247.252 257.977,266.890 257.954,277.395 249.614 C 279.802 247.703,280.289 248.000,279.456 250.868 C 275.106 265.829,243.880 269.358,231.752 256.259 C 229.404 253.723,229.086 253.504,228.714 254.168 C 226.961 257.301,222.309 260.636,217.393 262.284 C 200.363 267.995,179.200 260.704,179.200 249.126 L 179.200 247.043 180.500 248.264 C 192.810 259.821,221.034 257.662,227.524 244.667 C 228.145 243.422,228.622 242.910,229.018 243.062 C 229.699 243.324,229.751 243.056,229.207 242.095 C 228.516 240.874,223.200 229.534,223.191 229.262 C 223.179 228.915,221.620 226.929,221.609 227.246 M353.412 235.487 C 353.255 235.879,352.777 237.521,352.349 239.136 C 351.071 243.953,349.435 248.768,348.353 250.895 C 348.159 251.277,348.000 251.766,348.000 251.983 C 348.000 253.083,342.895 263.440,339.414 269.400 C 337.248 273.110,330.294 283.069,329.220 284.000 C 329.093 284.110,328.194 285.190,327.222 286.400 C 324.943 289.237,312.461 301.813,310.276 303.473 C 309.354 304.174,308.240 305.074,307.800 305.475 C 305.366 307.689,296.716 313.779,291.495 316.953 L 290.391 317.625 290.495 332.912 L 290.600 348.200 291.500 348.328 C 291.995 348.398,292.400 348.263,292.400 348.028 C 292.400 347.793,292.688 347.600,293.040 347.600 C 293.391 347.600,294.183 347.060,294.800 346.400 C 295.417 345.740,296.169 345.200,296.472 345.200 C 296.775 345.200,297.283 344.840,297.600 344.400 C 297.917 343.960,298.380 343.600,298.629 343.600 C 298.878 343.600,299.603 343.103,300.241 342.496 C 300.878 341.888,302.030 340.950,302.800 340.411 C 303.570 339.872,304.677 338.929,305.260 338.315 C 305.844 337.702,306.500 337.200,306.718 337.200 C 306.936 337.200,309.141 335.220,311.618 332.800 C 314.095 330.380,316.287 328.400,316.489 328.400 C 316.957 328.400,317.574 327.761,318.806 326.000 C 319.345 325.230,321.364 323.032,323.293 321.115 C 325.222 319.199,326.800 317.430,326.800 317.184 C 326.800 316.938,327.520 316.046,328.400 315.200 C 329.280 314.354,330.000 313.469,330.000 313.232 C 330.000 312.995,330.720 312.059,331.600 311.152 C 332.480 310.245,333.200 309.295,333.200 309.040 C 333.200 308.785,333.560 308.317,334.000 308.000 C 334.440 307.683,334.800 307.191,334.800 306.908 C 334.800 306.625,335.340 305.828,336.000 305.137 C 336.660 304.446,337.200 303.638,337.200 303.341 C 337.200 303.043,337.350 302.800,337.532 302.800 C 337.715 302.800,338.120 302.305,338.432 301.700 C 338.745 301.095,339.315 300.251,339.700 299.825 C 340.085 299.398,340.400 298.813,340.400 298.525 C 340.400 298.236,340.580 298.000,340.800 298.000 C 341.020 298.000,341.200 297.722,341.200 297.383 C 341.200 297.044,341.560 296.380,342.000 295.908 C 342.440 295.436,342.800 294.813,342.800 294.525 C 342.800 294.236,342.980 294.000,343.200 294.000 C 343.420 294.000,343.600 293.680,343.600 293.288 C 343.600 292.897,343.960 292.317,344.400 292.000 C 344.840 291.683,345.200 291.229,345.200 290.991 C 345.200 290.325,346.163 288.407,346.500 288.403 C 346.665 288.401,346.800 288.040,346.800 287.600 C 346.800 287.160,346.980 286.800,347.200 286.800 C 347.420 286.800,347.600 286.440,347.600 286.000 C 347.600 285.560,347.780 285.200,348.000 285.200 C 348.220 285.200,348.400 284.840,348.400 284.400 C 348.400 283.960,348.580 283.600,348.800 283.600 C 349.020 283.600,349.200 283.240,349.200 282.800 C 349.200 282.360,349.380 282.000,349.600 282.000 C 349.820 282.000,350.000 281.640,350.000 281.200 C 350.000 280.760,350.180 280.400,350.400 280.400 C 350.620 280.400,350.800 280.135,350.800 279.812 C 350.800 279.489,351.160 278.583,351.600 277.800 C 352.040 277.017,352.400 276.021,352.400 275.588 C 352.400 275.155,352.580 274.800,352.800 274.800 C 353.020 274.800,353.200 274.440,353.200 274.000 C 353.200 273.560,353.380 273.200,353.600 273.200 C 353.820 273.200,354.000 272.660,354.000 272.000 C 354.000 271.340,354.180 270.800,354.400 270.800 C 354.620 270.800,354.800 270.440,354.800 270.000 C 354.800 269.560,354.980 269.200,355.200 269.200 C 355.420 269.200,355.600 268.761,355.600 268.224 C 355.600 267.687,355.780 267.136,356.000 267.000 C 356.220 266.864,356.400 266.403,356.400 265.976 C 356.400 265.549,356.580 265.200,356.800 265.200 C 357.020 265.200,357.200 264.660,357.200 264.000 C 357.200 263.340,357.380 262.800,357.600 262.800 C 357.820 262.800,358.000 262.271,358.000 261.624 C 358.000 260.977,358.180 260.336,358.400 260.200 C 358.620 260.064,358.800 259.434,358.800 258.800 C 358.800 258.166,358.980 257.536,359.200 257.400 C 359.420 257.264,359.600 256.634,359.600 256.000 C 359.600 255.366,359.780 254.736,360.000 254.600 C 360.220 254.464,360.400 253.834,360.400 253.200 C 360.400 252.566,360.580 251.936,360.800 251.800 C 361.020 251.664,361.200 250.944,361.200 250.200 C 361.200 249.456,361.380 248.736,361.600 248.600 C 361.820 248.464,362.000 247.643,362.000 246.776 C 362.000 245.909,362.180 245.200,362.400 245.200 C 362.620 245.200,362.800 244.401,362.800 243.424 C 362.800 242.447,362.980 241.536,363.200 241.400 C 363.420 241.264,363.600 240.299,363.600 239.256 C 363.600 238.213,363.784 237.176,364.009 236.951 C 364.998 235.962,363.061 235.307,358.348 235.038 C 354.113 234.797,353.670 234.837,353.412 235.487 M326.929 270.316 C 319.713 281.227,306.933 294.162,294.770 302.866 C 293.029 304.112,291.378 305.213,291.102 305.311 C 290.826 305.410,290.726 305.626,290.879 305.791 C 291.203 306.140,294.860 303.651,300.783 299.050 C 306.219 294.827,317.421 283.731,321.578 278.451 C 325.282 273.747,329.779 267.200,329.305 267.200 C 329.132 267.200,328.063 268.602,326.929 270.316 M104.812 296.300 C 104.857 297.483,118.436 306.930,127.600 312.155 C 135.627 316.731,155.839 325.095,156.726 324.208 C 157.023 323.910,156.917 323.864,153.600 322.844 C 138.783 318.286,118.234 307.181,107.220 297.780 C 105.085 295.958,104.791 295.777,104.812 296.300 " stroke="none" fill="#acd3d3" fill-rule="evenodd"></path></g></svg>