<svg id="svg" version="1.1" xmlns="http://www.w3.org/2000/svg" xmlns:xlink="http://www.w3.org/1999/xlink" width="400" height="400" viewBox="0, 0, 400,400"><g id="svgg"><path id="path0" d="M174.734 119.856 C 169.055 122.082,163.298 128.940,163.298 133.479 C 163.298 133.731,161.453 133.946,159.197 133.954 C 150.034 133.990,143.852 139.902,142.280 150.133 C 141.980 152.085,141.924 152.128,139.660 152.128 C 126.980 152.128,117.307 165.254,121.005 177.442 C 122.042 180.861,122.141 180.555,119.487 182.110 C 105.103 190.540,105.330 212.365,119.881 219.984 L 122.694 221.457 122.204 224.157 C 120.271 234.789,127.852 245.842,138.285 247.604 C 140.260 247.938,140.292 247.983,140.629 250.854 C 141.732 260.238,151.270 267.462,160.827 266.152 L 163.095 265.841 163.774 268.160 C 168.188 283.219,189.780 285.680,196.633 271.904 C 198.274 268.605,198.402 133.904,196.768 129.536 C 193.794 121.586,182.725 116.723,174.734 119.856 M213.235 119.883 C 208.329 121.637,204.397 125.450,202.810 129.995 C 201.919 132.548,201.862 136.838,201.862 200.835 L 201.862 268.958 203.467 272.097 C 210.518 285.884,233.147 282.812,236.428 267.622 C 236.810 265.853,236.846 265.833,239.128 266.145 C 248.736 267.462,258.464 260.078,259.428 250.735 C 259.711 247.989,259.750 247.936,261.717 247.604 C 272.148 245.842,279.729 234.788,277.796 224.157 L 277.306 221.457 280.119 219.984 C 294.670 212.365,294.897 190.540,280.513 182.110 C 277.859 180.555,277.958 180.861,278.995 177.442 C 282.689 165.267,272.994 152.128,260.316 152.128 C 259.031 152.128,257.975 151.948,257.969 151.729 C 257.733 141.504,250.083 133.891,240.099 133.945 L 236.846 133.962 236.184 131.742 C 233.299 122.076,222.588 116.541,213.235 119.883 M185.522 124.761 C 192.518 127.679,193.059 129.592,193.073 151.463 L 193.085 169.681 189.208 169.681 C 181.730 169.681,178.191 172.833,178.191 179.494 C 178.191 183.561,178.687 184.574,180.673 184.574 C 182.224 184.574,182.979 183.120,182.979 180.132 C 182.979 175.737,184.523 174.468,189.867 174.468 L 193.085 174.468 193.085 187.234 L 193.085 200.000 181.383 200.000 L 169.681 200.000 169.681 194.787 C 169.681 189.438,169.295 188.298,167.485 188.298 C 165.342 188.298,164.894 189.663,164.894 196.190 C 164.894 206.283,162.975 208.511,154.283 208.511 C 148.883 208.511,147.872 208.888,147.872 210.904 C 147.872 212.958,148.861 213.298,154.833 213.298 C 162.021 213.298,165.069 211.975,168.034 207.568 L 169.906 204.787 181.495 204.787 L 193.085 204.787 193.085 236.136 C 193.085 269.258,193.084 269.268,190.525 272.009 C 180.662 282.569,166.530 273.469,167.687 257.302 C 168.051 252.208,168.195 252.128,176.857 252.128 C 184.175 252.128,185.106 251.858,185.106 249.734 C 185.106 247.589,184.199 247.340,176.356 247.341 C 165.411 247.342,163.493 248.685,162.833 256.812 L 162.500 260.904 159.574 261.075 C 149.514 261.664,146.277 257.636,146.277 244.529 L 146.277 235.195 158.112 235.018 L 169.947 234.840 172.485 233.348 C 177.984 230.116,181.057 219.888,176.847 218.832 C 174.917 218.347,174.102 219.332,173.688 222.652 C 172.872 229.181,170.305 230.312,156.297 230.316 L 146.371 230.319 145.206 227.911 C 142.431 222.179,132.979 219.343,132.979 224.243 C 132.979 225.744,133.828 226.374,136.379 226.767 C 140.440 227.392,140.957 228.469,140.957 236.305 L 140.957 243.170 139.229 242.807 C 129.668 240.805,124.180 230.773,127.800 221.917 C 129.034 218.899,128.495 218.000,124.601 216.580 C 111.249 211.712,109.815 193.659,122.200 186.345 C 124.366 185.066,124.783 185.017,132.944 185.079 C 145.848 185.177,149.677 182.675,150.400 173.671 C 150.860 167.937,146.337 166.787,145.633 172.459 C 144.790 179.247,143.184 180.319,133.864 180.319 L 127.249 180.319 126.266 178.324 C 121.512 168.676,129.295 157.768,141.446 157.047 C 147.175 156.708,147.222 156.666,147.222 151.940 C 147.222 144.462,152.368 138.814,159.158 138.838 C 162.568 138.850,162.613 138.940,162.867 146.277 C 163.134 153.954,164.020 156.634,167.217 159.441 L 169.186 161.170 175.444 161.170 C 182.015 161.170,182.979 160.864,182.979 158.777 C 182.979 156.739,181.980 156.383,176.262 156.383 C 168.539 156.383,167.553 154.765,167.553 142.092 C 167.553 127.954,175.289 120.493,185.522 124.761 M223.820 124.761 C 230.173 127.411,231.649 130.883,231.649 143.178 C 231.649 156.033,231.638 156.054,224.679 156.250 C 217.516 156.451,216.026 157.252,217.542 160.086 C 218.541 161.952,230.130 161.708,232.429 159.774 C 235.686 157.033,237.200 151.823,237.224 143.275 C 237.235 139.037,237.412 138.830,241.018 138.830 C 247.661 138.830,252.625 144.421,252.648 151.930 C 252.662 156.631,252.786 156.733,258.777 157.024 C 270.633 157.599,278.222 168.353,273.809 178.324 L 272.927 180.319 266.118 180.317 C 256.934 180.314,254.255 178.587,254.255 172.667 C 254.255 169.806,253.808 169.149,251.862 169.149 C 248.284 169.149,248.558 176.971,252.285 181.215 C 255.219 184.557,257.123 185.081,266.373 185.095 C 275.428 185.108,276.817 185.448,280.651 188.589 C 290.162 196.383,287.178 212.286,275.399 216.580 C 271.578 217.974,271.028 218.843,272.081 221.828 C 275.398 231.230,270.035 240.729,260.239 242.804 L 258.511 243.170 258.511 236.691 L 258.511 230.213 260.319 228.404 C 261.471 227.252,262.642 226.596,263.546 226.596 C 266.386 226.596,268.047 224.788,267.001 222.834 C 265.211 219.491,255.674 224.209,254.462 229.036 L 254.121 230.393 242.790 230.223 C 232.272 230.065,231.350 229.973,229.958 228.940 C 227.530 227.140,226.064 224.565,226.064 222.102 C 226.064 219.636,225.352 218.617,223.629 218.617 C 218.673 218.617,221.477 229.589,227.364 233.231 L 229.967 234.840 241.845 235.018 L 253.723 235.195 253.723 244.205 C 253.723 256.739,250.469 261.189,241.322 261.162 C 237.595 261.151,237.470 261.007,236.837 255.977 C 235.864 248.250,234.484 247.340,223.725 247.340 C 215.293 247.340,213.796 248.020,215.444 251.099 C 215.947 252.037,216.620 252.128,223.119 252.128 C 228.886 252.128,230.402 252.287,231.079 252.964 C 232.224 254.109,232.273 265.136,231.144 267.836 C 227.652 276.194,217.373 278.780,210.620 273.000 C 206.708 269.651,206.915 271.687,206.915 236.463 L 206.915 204.787 218.847 204.787 C 230.521 204.787,230.787 204.812,231.136 205.910 C 232.631 210.623,237.709 213.271,245.281 213.286 C 251.511 213.299,252.338 212.930,252.033 210.272 L 251.862 208.777 245.913 208.511 C 236.577 208.093,234.955 206.293,234.653 196.011 C 234.462 189.497,234.114 188.298,232.420 188.298 C 230.340 188.298,229.787 189.703,229.787 194.985 L 229.787 200.000 218.351 200.000 L 206.915 200.000 206.915 187.234 L 206.915 174.468 210.081 174.468 C 215.461 174.468,217.021 175.885,217.021 180.770 C 217.021 183.540,217.683 184.574,219.456 184.574 C 221.424 184.574,221.943 183.332,221.730 179.128 C 221.397 172.530,218.076 169.681,210.717 169.681 L 206.877 169.681 207.029 150.583 L 207.181 131.486 208.850 129.174 C 212.140 124.616,218.780 122.659,223.820 124.761 M177.926 128.942 C 173.259 131.017,171.571 138.298,175.757 138.298 C 177.251 138.298,178.191 137.337,178.191 135.810 C 178.191 133.830,180.499 132.626,182.181 133.728 C 182.955 134.235,183.511 135.105,183.511 135.810 C 183.511 138.118,186.328 139.233,187.770 137.495 C 191.221 133.337,183.374 126.521,177.926 128.942 M124.547 191.847 C 116.337 195.953,119.785 209.598,128.867 208.940 C 132.588 208.670,132.194 204.255,128.449 204.255 C 126.818 204.255,124.823 201.914,124.823 200.000 C 124.823 198.086,126.818 195.745,128.449 195.745 C 130.334 195.745,131.495 194.541,131.296 192.793 C 131.074 190.841,127.547 190.347,124.547 191.847 M268.972 191.312 C 267.477 192.807,269.273 195.745,271.681 195.745 C 276.588 195.745,276.045 202.730,271.011 204.366 C 267.684 205.448,267.771 208.696,271.133 208.940 C 280.261 209.601,283.681 195.784,275.366 191.838 C 273.513 190.959,269.643 190.641,268.972 191.312 M212.340 262.340 C 209.940 264.741,213.528 270.773,217.838 271.581 C 222.954 272.541,228.929 265.952,226.068 262.505 C 224.626 260.767,221.809 261.882,221.809 264.190 C 221.809 264.895,221.253 265.765,220.479 266.272 C 218.797 267.374,216.489 266.170,216.489 264.190 C 216.489 262.677,215.551 261.702,214.096 261.702 C 213.481 261.702,212.691 261.989,212.340 262.340 " stroke="none" fill="#000000" fill-rule="evenodd"></path></g></svg>