<svg id="svg" version="1.1" xmlns="http://www.w3.org/2000/svg" xmlns:xlink="http://www.w3.org/1999/xlink" width="400" height="400" viewBox="0, 0, 400,400"><g id="svgg"><path id="path0" d="M120.237 81.427 C 116.727 82.123,113.301 84.479,111.450 87.471 L 109.840 90.074 109.686 106.739 L 109.532 123.404 106.989 123.404 C 101.391 123.404,95.881 127.994,94.711 133.633 C 94.303 135.599,94.171 156.017,94.272 201.863 C 94.434 275.861,94.064 269.821,98.676 273.870 C 102.534 277.257,100.973 277.128,138.013 277.128 L 171.805 277.128 166.627 287.500 L 161.449 297.872 153.310 297.872 C 144.161 297.872,142.202 298.427,139.708 301.724 C 134.925 308.045,138.101 316.928,145.729 318.564 C 149.610 319.396,250.455 319.381,254.362 318.548 C 261.834 316.954,265.039 307.933,260.328 301.756 C 257.785 298.422,255.854 297.872,246.690 297.872 L 238.551 297.872 233.373 287.500 L 228.195 277.128 261.987 277.128 C 299.027 277.128,297.466 277.257,301.324 273.870 C 305.936 269.821,305.566 275.861,305.728 201.863 C 305.829 156.017,305.697 135.599,305.289 133.633 C 304.094 127.874,298.621 123.404,292.765 123.404 L 289.977 123.404 289.793 107.580 C 289.566 88.065,288.925 85.996,282.052 82.621 L 278.989 81.117 200.798 81.037 C 157.345 80.993,121.554 81.166,120.237 81.427 M276.862 88.814 C 281.107 89.794,281.915 91.498,281.915 99.476 L 281.915 106.383 199.468 106.383 L 117.021 106.383 117.021 99.476 C 117.021 91.645,117.866 89.771,121.816 88.843 C 124.422 88.230,274.211 88.203,276.862 88.814 M128.310 94.445 C 126.789 95.511,126.666 98.885,128.100 100.184 C 129.631 101.569,137.394 101.436,138.830 100.000 C 142.929 95.900,133.409 90.873,128.310 94.445 M147.074 94.253 C 144.947 95.459,144.471 98.632,146.186 100.184 C 150.232 103.846,160.366 99.611,157.572 95.425 C 156.398 93.667,149.471 92.893,147.074 94.253 M164.603 94.923 C 161.235 98.291,163.610 101.064,169.864 101.064 C 174.990 101.064,176.064 100.394,176.064 97.196 C 176.064 93.470,167.713 91.813,164.603 94.923 M203.529 94.719 C 201.814 96.068,201.661 98.469,203.191 100.000 C 204.866 101.675,268.437 101.668,269.953 99.993 C 271.326 98.476,271.206 95.809,269.711 94.598 C 267.706 92.975,205.602 93.089,203.529 94.719 M281.915 182.328 C 281.915 257.685,282.159 252.213,278.718 253.992 C 276.370 255.206,122.543 255.195,120.195 253.980 C 116.822 252.236,117.021 256.754,117.021 181.941 L 117.021 113.830 199.468 113.830 L 281.915 113.830 281.915 182.328 M133.602 130.186 C 124.196 137.827,124.152 138.257,132.097 144.818 C 141.099 152.252,143.047 153.053,144.685 149.992 C 146.103 147.343,145.419 145.971,140.691 141.991 C 135.329 137.475,135.542 138.418,139.229 135.512 C 145.543 130.534,146.772 128.172,144.240 125.880 C 142.134 123.974,140.369 124.689,133.602 130.186 M154.594 125.801 C 153.657 126.738,153.890 126.024,150.819 137.401 C 148.196 147.118,147.969 148.957,149.239 150.227 C 151.183 152.171,154.789 151.515,155.524 149.083 C 157.417 142.822,160.638 129.859,160.638 128.505 C 160.638 125.474,156.689 123.707,154.594 125.801 M164.710 125.973 C 162.396 128.530,163.362 130.076,171.488 136.831 L 173.030 138.112 168.430 141.986 C 163.522 146.119,162.592 148.154,164.665 150.227 C 167.080 152.642,168.115 152.201,176.697 145.102 C 185.030 138.210,185.015 137.959,175.848 130.444 C 168.717 124.598,166.690 123.785,164.710 125.973 M194.362 125.407 C 192.289 126.791,192.320 130.326,194.418 131.700 C 196.500 133.064,231.726 132.558,232.756 131.148 C 233.816 129.698,233.701 126.933,232.538 125.880 C 231.504 124.944,195.719 124.501,194.362 125.407 M251.368 125.836 C 249.945 127.258,250.109 130.169,251.687 131.516 C 253.187 132.797,270.366 132.919,272.161 131.661 C 274.178 130.249,274.159 126.763,272.128 125.407 C 270.856 124.558,252.262 124.942,251.368 125.836 M109.574 191.587 C 109.574 260.599,109.170 254.596,114.109 258.943 C 118.059 262.420,113.244 262.234,199.468 262.234 C 286.377 262.234,280.896 262.462,285.101 258.680 C 290.005 254.271,289.608 259.988,289.774 191.356 L 289.920 130.851 291.916 130.851 C 293.880 130.851,295.915 131.868,297.191 133.486 C 297.692 134.122,297.842 149.284,297.855 200.451 L 297.872 266.594 296.220 268.138 L 294.568 269.681 200.000 269.681 L 105.432 269.681 103.780 268.138 L 102.128 266.594 102.145 200.451 C 102.158 149.284,102.308 134.122,102.809 133.486 C 104.036 131.930,106.092 130.851,107.831 130.851 L 109.574 130.851 109.574 191.587 M200.348 144.590 C 198.976 146.106,199.224 148.667,200.870 149.961 C 202.732 151.427,270.094 151.726,272.161 150.278 C 274.178 148.866,274.159 145.380,272.128 144.024 C 270.631 143.024,201.270 143.571,200.348 144.590 M127.389 162.970 C 126.084 163.923,126.035 167.220,127.306 168.492 C 128.811 169.996,162.501 169.895,163.607 168.382 C 164.667 166.932,164.553 164.167,163.389 163.114 C 162.048 161.901,129.032 161.768,127.389 162.970 M179.604 163.207 C 178.231 164.723,178.480 167.284,180.125 168.578 C 181.689 169.809,197.343 170.260,200.241 169.158 C 202.642 168.246,203.186 164.964,201.257 163.035 C 199.936 161.714,180.818 161.865,179.604 163.207 M216.254 163.416 C 215.059 165.121,215.233 166.877,216.745 168.389 L 218.065 169.709 244.918 169.562 C 274.969 169.397,273.617 169.582,273.617 165.637 C 273.617 162.119,274.608 162.234,244.343 162.234 L 217.082 162.234 216.254 163.416 M127.389 181.587 C 126.085 182.540,126.035 185.837,127.306 187.109 C 128.893 188.697,163.588 188.794,165.595 187.215 C 167.318 185.859,167.548 183.088,166.049 181.731 C 164.706 180.516,129.035 180.383,127.389 181.587 M183.807 182.033 C 182.616 183.734,182.785 185.493,184.284 186.992 L 185.590 188.298 212.973 188.298 C 244.651 188.298,245.485 188.157,243.571 183.123 C 242.699 180.831,243.196 180.868,213.195 180.859 L 184.635 180.851 183.807 182.033 M254.551 182.033 C 253.352 183.746,253.533 185.496,255.068 187.031 C 256.812 188.775,270.969 188.838,272.695 187.109 C 273.965 185.837,273.915 182.540,272.611 181.587 C 270.696 180.186,255.584 180.560,254.551 182.033 M127.389 200.204 C 126.085 201.157,126.035 204.454,127.306 205.726 C 128.514 206.934,195.003 207.427,197.317 206.244 C 199.430 205.165,199.676 201.139,197.706 199.886 C 196.443 199.083,128.502 199.390,127.389 200.204 M220.509 200.650 C 219.314 202.356,219.488 204.111,221.002 205.625 L 222.323 206.946 247.047 206.797 C 274.719 206.631,273.617 206.794,273.617 202.871 C 273.617 199.370,274.397 199.468,246.471 199.468 L 221.337 199.468 220.509 200.650 M127.389 218.821 C 126.084 219.775,126.035 223.072,127.306 224.343 C 128.700 225.736,147.896 225.736,149.290 224.343 C 150.561 223.072,150.511 219.775,149.207 218.821 C 147.754 217.759,128.841 217.759,127.389 218.821 M161.998 219.267 C 160.889 220.851,160.954 222.488,162.187 224.010 L 163.204 225.266 194.681 225.266 L 226.158 225.266 227.175 224.010 C 228.407 222.488,228.472 220.851,227.363 219.267 L 226.535 218.085 194.681 218.085 L 162.826 218.085 161.998 219.267 M239.091 218.821 C 237.787 219.775,237.737 223.072,239.008 224.343 C 240.418 225.753,271.284 225.753,272.694 224.343 C 273.965 223.072,273.916 219.775,272.611 218.821 C 271.136 217.742,240.566 217.742,239.091 218.821 M127.389 237.438 C 126.084 238.392,126.035 241.689,127.306 242.960 C 128.146 243.800,129.858 243.883,146.343 243.883 L 164.456 243.883 165.473 242.627 C 166.705 241.105,166.770 239.468,165.661 237.884 L 164.833 236.702 146.614 236.702 C 131.945 236.702,128.199 236.845,127.389 237.438 M185.403 237.884 C 184.294 239.468,184.359 241.105,185.591 242.627 L 186.608 243.883 229.189 243.883 C 276.859 243.883,273.617 244.159,273.617 240.105 C 273.617 236.510,276.146 236.702,228.918 236.702 L 186.231 236.702 185.403 237.884 M224.731 287.229 C 227.512 292.784,229.787 297.452,229.787 297.601 C 229.787 297.750,216.383 297.872,200.000 297.872 C 183.617 297.872,170.213 297.750,170.213 297.601 C 170.213 297.452,172.488 292.784,175.269 287.229 L 180.324 277.128 200.000 277.128 L 219.676 277.128 224.731 287.229 M253.511 305.726 C 255.688 307.180,255.167 310.528,252.655 311.227 C 251.926 311.430,228.231 311.596,200.000 311.596 C 171.769 311.596,148.074 311.430,147.345 311.227 C 144.833 310.528,144.312 307.180,146.489 305.726 C 146.811 305.511,170.891 305.335,200.000 305.335 C 229.109 305.335,253.189 305.511,253.511 305.726 " stroke="none" fill="#000000" fill-rule="evenodd"></path></g></svg>