<svg id="svg" version="1.1" xmlns="http://www.w3.org/2000/svg" xmlns:xlink="http://www.w3.org/1999/xlink" width="400" height="400" viewBox="0, 0, 400,400"><g id="svgg"><path id="path0" d="M175.391 89.912 C 165.452 92.396,160.172 103.441,164.598 112.488 C 171.970 127.554,194.872 122.328,194.848 105.585 C 194.833 95.295,185.128 87.477,175.391 89.912 M217.234 101.539 C 213.484 104.321,174.550 143.822,173.930 145.473 C 172.501 149.283,174.993 152.926,179.031 152.926 L 181.381 152.926 203.856 130.451 L 226.330 107.977 226.330 105.541 C 226.330 100.601,221.414 98.438,217.234 101.539 M181.306 101.290 C 184.253 102.814,184.790 106.062,182.514 108.609 C 180.547 110.810,177.758 110.979,175.796 109.016 C 171.779 104.996,176.277 98.689,181.306 101.290 M216.755 132.095 C 198.951 137.993,202.402 163.298,221.011 163.298 C 241.445 163.298,242.372 133.350,221.991 131.650 C 220.131 131.494,218.029 131.673,216.755 132.095 M223.356 143.326 C 226.314 144.856,226.703 148.714,224.143 151.120 C 220.324 154.707,214.156 149.860,216.700 145.271 C 218.082 142.778,220.774 141.991,223.356 143.326 M123.913 174.183 C 121.974 175.238,100.000 208.355,100.000 210.223 C 100.000 214.687,102.233 215.957,110.080 215.957 L 115.957 215.957 115.957 261.455 C 115.957 311.638,115.768 308.848,119.263 310.067 C 121.570 310.871,278.430 310.871,280.737 310.067 C 284.232 308.848,284.043 311.638,284.043 261.455 L 284.043 215.957 289.920 215.957 C 297.767 215.957,300.000 214.687,300.000 210.223 C 300.000 208.235,277.998 175.202,275.978 174.158 C 273.823 173.043,125.963 173.068,123.913 174.183 M189.029 185.239 C 188.812 185.605,185.802 190.153,182.342 195.346 L 176.050 204.787 146.225 204.787 C 129.178 204.787,116.477 204.586,116.578 204.317 C 116.676 204.059,119.628 199.516,123.138 194.223 L 129.521 184.598 159.473 184.586 C 183.293 184.577,189.344 184.711,189.029 185.239 M276.862 194.223 C 280.372 199.516,283.324 204.059,283.422 204.317 C 283.523 204.586,270.822 204.787,253.775 204.787 L 223.950 204.787 217.658 195.346 C 214.198 190.153,211.188 185.605,210.971 185.239 C 210.656 184.711,216.707 184.577,240.527 184.586 L 270.479 184.598 276.862 194.223 M194.681 248.404 L 194.681 299.468 160.638 299.468 L 126.596 299.468 126.596 257.713 L 126.596 215.957 153.432 215.957 C 172.317 215.957,180.662 215.779,181.594 215.354 C 182.405 214.984,185.149 211.377,188.667 206.057 C 191.828 201.276,194.475 197.359,194.548 197.352 C 194.621 197.346,194.681 220.319,194.681 248.404 M218.196 215.243 C 219.136 215.765,225.592 215.924,246.410 215.939 L 273.404 215.957 273.404 257.713 L 273.404 299.468 239.362 299.468 L 205.319 299.468 205.320 248.271 L 205.320 197.074 211.149 205.821 C 214.355 210.631,217.526 214.871,218.196 215.243 M138.475 259.291 C 136.150 261.616,136.173 264.605,138.535 266.969 C 140.148 268.585,156.890 269.417,160.199 268.047 C 163.506 266.677,164.457 262.046,162.015 259.205 L 160.733 257.713 150.558 257.547 L 140.384 257.382 138.475 259.291 M138.655 279.810 C 136.958 281.145,136.331 283.990,137.246 286.200 C 138.547 289.339,138.677 289.362,155.478 289.362 L 170.827 289.362 172.381 287.807 C 173.601 286.587,173.936 285.775,173.936 284.043 C 173.936 282.310,173.601 281.498,172.381 280.278 L 170.827 278.723 155.432 278.723 C 140.734 278.723,139.975 278.773,138.655 279.810 " stroke="none" fill="#000000" fill-rule="evenodd"></path></g></svg>