<?xml version="1.0" encoding="UTF-8"?>
<svg width="300px" height="90px" viewBox="0 0 300 90" version="1.1" xmlns="http://www.w3.org/2000/svg" xmlns:xlink="http://www.w3.org/1999/xlink">
    <!-- Generator: Sketch 51.3 (57544) - http://www.bohemiancoding.com/sketch -->
    <title>DOCS</title>
    <desc>Created with Sketch.</desc>
    <defs>
        <ellipse id="path-1" cx="33.1129963" cy="28.8926791" rx="33.0823897" ry="28.8748252"></ellipse>
        <rect id="path-3" x="0" y="0.0117438981" width="13.2590565" height="7.66611604"></rect>
        <rect id="path-5" x="0" y="0.0117438981" width="13.2590565" height="7.66611604"></rect>
        <polygon id="path-7" points="0.0474516583 8.7914433 10.0107669 1.88964336 10.0107669 19.4051499"></polygon>
        <polygon id="path-9" points="0.760597989 7.36515064 10.7239133 0.463350698 10.7239133 17.9788573"></polygon>
    </defs>
    <g id="DOCS" stroke="none" stroke-width="1" fill="none" fill-rule="evenodd">
        <g id="Badge-" transform="translate(10.000000, 3.000000)">
            <circle id="Oval-17" fill="#AFD5D0" fill-rule="nonzero" cx="36.527255" cy="43.4158659" r="36.527255"></circle>
            <g id="head" transform="translate(3.733691, 0.058701)">
                <g id="HEAD" transform="translate(1.146423, 14.452240)">
                    <mask id="mask-2" fill="white">
                        <use xlink:href="#path-1"></use>
                    </mask>
                    <use id="head" fill="#F7CD88" fill-rule="nonzero" xlink:href="#path-1"></use>
                    <ellipse id="Oval-4" fill="#FFFFFF" fill-rule="nonzero" mask="url(#mask-2)" cx="37.4353357" cy="50.0588791" rx="26.117676" ry="16.9764894"></ellipse>
                </g>
                <ellipse id="head-border" stroke="#3C2E53" stroke-width="3" fill-rule="nonzero" cx="34.2594195" cy="43.344919" rx="31.5823897" ry="27.3748252"></ellipse>
                <g id="mouth" transform="translate(27.691426, 45.956687)">
                    <g id="Group-10" transform="translate(10.672686, 4.275738)">
                        <mask id="mask-4" fill="white">
                            <use xlink:href="#path-3"></use>
                        </mask>
                        <g id="Rectangle-5" fill-rule="nonzero"></g>
                        <ellipse id="Oval-10" fill="#3C2E53" fill-rule="nonzero" mask="url(#mask-4)" cx="6.69345804" cy="1.90285637" rx="5.63509903" ry="3.48235681"></ellipse>
                        <ellipse id="Oval-10" fill="#FFFFFF" fill-rule="nonzero" mask="url(#mask-4)" cx="7.29248109" cy="-0.0112110907" rx="5.63509903" ry="3.48235681"></ellipse>
                    </g>
                    <g id="Group-10" transform="translate(6.806448, 8.188781) scale(-1, 1) translate(-6.806448, -8.188781) translate(0.110796, 4.275738)">
                        <mask id="mask-6" fill="white">
                            <use xlink:href="#path-5"></use>
                        </mask>
                        <g id="Rectangle-5" fill-rule="nonzero"></g>
                        <ellipse id="Oval-10" fill="#3C2E53" fill-rule="nonzero" mask="url(#mask-6)" cx="6.86737108" cy="1.90285637" rx="5.63509903" ry="3.48235681"></ellipse>
                        <ellipse id="Oval-10" fill="#FFFFFF" fill-rule="nonzero" mask="url(#mask-6)" cx="7.29248109" cy="-0.0112110907" rx="5.63509903" ry="3.48235681"></ellipse>
                    </g>
                    <polygon id="Path-24" fill="#3C2E53" fill-rule="nonzero" points="9.64566236 0 14.5223222 0 12.0839923 5.07560306"></polygon>
                </g>
                <g id="eyes" transform="translate(23.698368, 33.768438)" fill-rule="nonzero">
                    <circle id="Oval" fill="#FFFFFF" cx="5.22699269" cy="5.3357596" r="5.22353521"></circle>
                    <circle id="Oval-2" fill="#FFFFFF" cx="25.2505443" cy="5.3357596" r="5.22353521"></circle>
                    <ellipse id="Oval" fill="#3C2E53" cx="5.52455736" cy="5.3357596" rx="1.7411784" ry="3.48235681"></ellipse>
                    <ellipse id="Oval-2" fill="#3C2E53" cx="25.548109" cy="5.3357596" rx="1.7411784" ry="3.48235681"></ellipse>
                </g>
                <g id="r-ear-fill" transform="translate(42.221559, 10.414180)">
                    <polygon id="Path-18" stroke="#3C2E53" stroke-width="3" fill-rule="nonzero" points="0.91804086 7.0502649 10.8813561 0.148464957 10.8813561 10.6992579"></polygon>
                    <mask id="mask-8" fill="white">
                        <use xlink:href="#path-7"></use>
                    </mask>
                    <use id="Path-18" fill="#F7CD88" fill-rule="nonzero" xlink:href="#path-7"></use>
                    <polyline id="Path-12" fill="#D67D54" fill-rule="nonzero" mask="url(#mask-8)" points="2.65467928 9.21420364 7.99851563 4.79281775 7.99851563 13.3631053 2.65467928 9.82081047"></polyline>
                </g>
                <g id="hat" transform="translate(12.389595, 0.124552)" fill-rule="nonzero">
                    <path d="M31.7510023,17.9327515 L26.2293327,2.88362778 C17.2786759,0.252181661 8.9399934,2.76036895 1.21328537,10.4081897 C1.21328537,13.5485786 1.21328537,13.5485786 1.21328537,24.7913693 C7.18903598,26.2638077 17.368275,23.9776017 31.7510023,17.9327515 Z" id="Path-14" fill="#FFFFFF" transform="translate(16.482144, 13.548579) rotate(1.000000) translate(-16.482144, -13.548579) "></path>
                    <path d="M31.0748156,15.9570816 L25.8400911,1.62414786 C16.5670784,-1.32729957 8.06721811,1.02088708 0.340510088,8.66870778 C0.340510088,11.8090967 0.340510088,11.8090967 0.340510088,23.0518875 C6.31626069,24.5243258 16.5610292,22.1593905 31.0748156,15.9570816 Z" id="Path-14" fill="#BB0048" transform="translate(15.707663, 11.933499) rotate(1.000000) translate(-15.707663, -11.933499) "></path>
                </g>
                <g id="l-ear" transform="translate(5.718222, 17.541299)">
                    <path d="M-1.0535025,5.55337348 L9.55707678,-1.79679996 L9.55707678,16.8565966 L-1.0535025,5.55337348 Z" id="Path-18" stroke="#3C2E53" stroke-width="3" stroke-linecap="square" fill-rule="nonzero" transform="translate(4.644107, 7.067026) scale(-1, 1) rotate(-5.000000) translate(-4.644107, -7.067026) "></path>
                    <mask id="mask-10" fill="white">
                        <use xlink:href="#path-9"></use>
                    </mask>
                    <use id="Path-18" fill="#F7CD88" fill-rule="nonzero" transform="translate(5.742256, 9.221104) scale(-1, 1) rotate(-5.000000) translate(-5.742256, -9.221104) " xlink:href="#path-9"></use>
                    <polygon id="Path-10" fill="#D67D54" fill-rule="nonzero" mask="url(#mask-10)" points="3.5688943 4.56018451 3.5688943 16.8538562 11.7910312 10.7070204"></polygon>
                </g>
                <g id="bow-1" transform="translate(23.969792, 62.945396)" fill="#BB0048" fill-rule="nonzero">
                    <polygon id="Path-3" points="0.0301698852 0.0685475888 0.0301698852 14.9960917 29.0072954 0.0685475888 29.0072954 14.9960917"></polygon>
                    <circle id="Oval" stroke="#BB0048" cx="14.5187326" cy="7.53231966" r="3.28626207"></circle>
                </g>
                <g id="whiskers" transform="translate(0.000000, 39.333957)" fill-rule="nonzero" stroke="#3C2E53" stroke-linecap="round" stroke-width="3">
                    <path d="M62.9652957,1.71155336 L70.1335782,0.139729737" id="Path-26"></path>
                    <path d="M62.0169234,8.52848806 L69.3407721,8.99340066" id="Path-26"></path>
                    <path d="M5.78653217,11.6304541 L0.00960531639,12.1800116" id="Path-26"></path>
                    <path d="M4.93242563,5.29641639 L0.0186848663,4.86038199" id="Path-27"></path>
                </g>
            </g>
        </g>
        <circle id="Oval-20" fill="#D2BED1" fill-rule="nonzero" cx="152" cy="58" r="9"></circle>
        <circle id="Oval-20" fill="#DFB960" fill-rule="nonzero" opacity="0.699999988" cx="242.5" cy="58.5" r="6.5"></circle>
        <path d="M109.701571,31.02849 L122.100512,31.02849 C126.345976,31.02849 129.508939,31.6399963 131.589497,32.8630272 C133.670056,34.086058 134.710319,36.2720172 134.710319,39.4209703 C134.710319,42.9073111 133.445134,45.3111634 130.914725,46.632599 C128.55301,47.8415721 125.249471,48.4460495 121.004007,48.4460495 L120.666621,48.4460495 L120.666621,59.7484852 L125.938279,59.7484852 L125.938279,60.5497773 L109.701571,60.5497773 L109.701571,59.7484852 L112.442834,59.7484852 L112.442834,31.8297821 L109.701571,31.8297821 L109.701571,31.02849 Z M120.666621,31.8297821 L120.666621,47.6447574 L121.55226,47.6447574 C123.239199,47.6447574 124.405981,47.0683952 125.052641,45.9156535 C125.699301,44.7629117 126.022626,42.8932489 126.022626,40.3066089 L126.022626,38.282292 C126.022626,35.8924616 125.720387,34.2196054 125.115901,33.2636732 C124.511414,32.307741 123.407891,31.8297821 121.805299,31.8297821 L120.666621,31.8297821 Z M149.502134,52.2416436 L149.502134,48.6569159 C149.502134,45.9296976 149.354529,43.940545 149.059315,42.6893985 C148.764101,41.438252 148.082306,40.8126881 147.013912,40.8126881 C146.395367,40.8126881 145.896322,40.9884083 145.516761,41.3398539 C145.137199,41.6912996 144.863076,42.2746906 144.694382,43.0900445 C144.441341,44.3552489 144.314822,46.2811422 144.314822,48.8677822 L144.314822,52.1572971 C144.314822,55.2219031 144.406197,57.0634507 144.588949,57.6819951 C144.7717,58.3005394 144.961478,58.8066136 145.158288,59.2002327 C145.46756,59.8750084 146.072037,60.2123911 146.971738,60.2123911 C148.068249,60.2123911 148.785187,59.5797985 149.122575,58.3145941 C149.375616,57.4148932 149.502134,55.3905966 149.502134,52.2416436 Z M146.887392,60.97151 C143.372935,60.97151 140.716046,60.0718226 138.916644,58.2724208 C137.117242,56.4730191 136.217555,53.8934467 136.217555,50.5336263 C136.217555,47.1738058 137.180502,44.5872046 139.106424,42.773745 C141.032346,40.9602855 143.738437,40.0535693 147.224778,40.0535693 C150.711119,40.0535693 153.311778,40.8899974 155.026832,42.5628787 C156.741887,44.23576 157.599402,46.7872172 157.599402,50.2173267 C157.599402,57.3868181 154.028767,60.97151 146.887392,60.97151 Z M173.782935,41.6561534 C172.742656,41.6561534 171.828911,42.330919 171.041672,43.6804703 C170.254434,45.0300216 169.860821,46.6325897 169.860821,48.4882228 L169.860821,59.7906585 L172.855123,59.7906585 L172.855123,60.5497773 L159.697063,60.5497773 L159.697063,59.7906585 L162.016593,59.7906585 L162.016593,41.2344208 L159.697063,41.2344208 L159.697063,40.475302 L169.860821,40.475302 L169.860821,44.5239356 C170.226324,43.0900374 170.929205,41.9865146 171.969484,41.2133341 C173.009763,40.4401537 174.190603,40.0535693 175.512039,40.0535693 C176.833474,40.0535693 177.908882,40.4260961 178.738294,41.1711609 C179.567705,41.9162257 179.982405,42.9705468 179.982405,44.3341559 C179.982405,45.6977651 179.673137,46.7450574 179.054593,47.4760644 C178.436049,48.2070713 177.48716,48.5725693 176.207898,48.5725693 C174.928635,48.5725693 173.986775,48.1508409 173.382289,47.3073713 C172.777802,46.4639017 172.700485,45.2971197 173.150336,43.8069901 L174.668573,43.8069901 C175.371465,42.3730918 175.076255,41.6561534 173.782935,41.6561534 Z M183.598304,54.519 L183.598304,41.2344208 L181.278775,41.2344208 L181.278775,40.475302 L183.598304,40.475302 L183.598304,35.0349505 L191.442532,33.0949801 L191.442532,40.475302 L196.925057,40.475302 L196.925057,41.2344208 L191.442532,41.2344208 L191.442532,55.4468119 C191.442532,56.7682476 191.576079,57.738223 191.843178,58.3567674 C192.110277,58.9753117 192.665553,59.2845793 193.509022,59.2845793 C194.352492,59.2845793 195.090516,58.8628508 195.723119,58.0193812 C196.355721,57.1759117 196.77042,56.0231872 196.96723,54.5611733 L197.684176,54.6455198 C197.45925,56.5854998 196.840715,58.1248087 195.828552,59.2634926 C194.816388,60.4021765 193.143532,60.97151 190.809933,60.97151 C188.476334,60.97151 186.691017,60.5076087 185.453928,59.5797921 C184.216839,58.6519756 183.598304,56.9650618 183.598304,54.519 Z M210.114288,60.97151 C206.487369,60.97151 203.76722,60.0366785 201.953761,58.1669877 C200.140301,56.2972968 199.233585,53.696638 199.233585,50.3649332 C199.233585,47.0332284 200.252762,44.4817712 202.291147,42.7104851 C204.329531,40.939199 206.923161,40.0535693 210.072115,40.0535693 C216.454368,40.0535693 219.518928,43.2587056 219.265887,49.6690743 L207.373025,49.6690743 L207.373025,51.3138317 C207.373025,54.0691656 207.724466,56.1496927 208.427357,57.5554753 C209.130248,58.9612579 210.353261,59.6641387 212.096431,59.6641387 C215.357847,59.6641387 217.494605,57.9209944 218.506768,54.4346535 L219.265887,54.5611733 C218.731689,56.5855003 217.768743,58.1599532 216.377018,59.2845793 C214.985293,60.4092054 212.897737,60.97151 210.114288,60.97151 Z M207.415199,48.8256089 L211.759045,48.8256089 L211.759045,46.7591188 C211.759045,44.481751 211.625498,42.9283845 211.358399,42.0989728 C211.0913,41.269561 210.557111,40.8548614 209.755815,40.8548614 C208.954519,40.8548614 208.364099,41.2976762 207.984538,42.1833193 C207.604976,43.0689623 207.415199,44.5942136 207.415199,46.7591188 L207.415199,48.8256089 Z M235.786806,41.6561534 C234.746527,41.6561534 233.832782,42.330919 233.045544,43.6804703 C232.258305,45.0300216 231.864692,46.6325897 231.864692,48.4882228 L231.864692,59.7906585 L234.858994,59.7906585 L234.858994,60.5497773 L221.700935,60.5497773 L221.700935,59.7906585 L224.020464,59.7906585 L224.020464,41.2344208 L221.700935,41.2344208 L221.700935,40.475302 L231.864692,40.475302 L231.864692,44.5239356 C232.230196,43.0900374 232.933076,41.9865146 233.973355,41.2133341 C235.013635,40.4401537 236.194474,40.0535693 237.51591,40.0535693 C238.837346,40.0535693 239.912753,40.4260961 240.742165,41.1711609 C241.571577,41.9162257 241.986276,42.9705468 241.986276,44.3341559 C241.986276,45.6977651 241.677009,46.7450574 241.058464,47.4760644 C240.43992,48.2070713 239.491031,48.5725693 238.211769,48.5725693 C236.932507,48.5725693 235.990646,48.1508409 235.38616,47.3073713 C234.781673,46.4639017 234.704357,45.2971197 235.154207,43.8069901 L236.672445,43.8069901 C237.375336,42.3730918 237.080126,41.6561534 235.786806,41.6561534 Z" id="Porter" fill="#3C2E53"></path>
    </g>
</svg>