<svg id="svg" version="1.1" xmlns="http://www.w3.org/2000/svg" xmlns:xlink="http://www.w3.org/1999/xlink" width="400" height="400" viewBox="0, 0, 400,400"><g id="svgg"><path id="path0" d="M192.553 89.924 C 166.118 93.212,144.858 111.817,137.885 137.766 C 136.624 142.459,136.511 143.852,136.298 157.314 L 136.069 171.809 127.875 171.809 C 116.047 171.809,117.553 161.691,117.553 241.141 L 117.553 308.346 118.673 309.359 C 120.429 310.948,279.571 310.948,281.327 309.359 L 282.447 308.346 282.447 241.141 C 282.447 161.741,283.914 171.809,272.340 171.809 L 264.362 171.809 264.357 163.165 C 264.352 153.180,263.649 144.131,262.489 139.131 C 255.191 107.661,224.360 85.968,192.553 89.924 M213.551 99.706 C 229.639 103.822,243.486 115.343,250.520 130.464 C 254.637 139.313,255.851 146.457,255.851 161.821 L 255.851 171.809 244.730 171.809 L 233.609 171.809 233.392 156.782 C 233.181 142.168,233.136 141.638,231.745 137.500 C 222.372 109.613,184.237 106.336,170.621 132.247 C 167.188 138.779,166.898 140.577,166.624 157.048 L 166.379 171.809 155.193 171.809 L 144.008 171.809 144.307 159.176 C 144.515 150.365,144.872 145.335,145.486 142.553 C 152.367 111.367,183.219 91.945,213.551 99.706 M208.683 124.462 C 221.073 129.166,224.579 136.279,224.873 157.314 L 225.076 171.809 199.994 171.809 L 174.911 171.809 175.112 157.314 C 175.330 141.540,175.604 139.971,179.122 134.373 C 185.131 124.812,198.127 120.454,208.683 124.462 M274.468 241.223 L 274.468 302.128 200.000 302.128 L 125.532 302.128 125.532 241.223 L 125.532 180.319 200.000 180.319 L 274.468 180.319 274.468 241.223 M194.681 208.978 C 181.828 213.189,177.388 229.157,186.289 239.160 L 188.125 241.223 184.742 256.907 C 180.087 278.484,178.414 276.596,202.186 276.596 L 219.197 276.596 220.503 275.290 C 222.345 273.448,222.332 273.376,217.023 256.212 L 212.237 240.739 213.802 239.120 C 222.053 230.584,219.090 215.848,207.962 210.078 C 205.403 208.751,197.397 208.088,194.681 208.978 M204.787 218.034 C 211.153 221.261,211.789 229.241,206.095 234.455 C 202.140 238.078,201.755 235.743,211.485 267.154 C 211.753 268.019,211.032 268.085,201.330 268.085 C 191.634 268.085,190.905 268.018,191.158 267.154 C 192.210 263.558,196.809 240.561,196.809 238.897 C 196.809 237.084,196.506 236.583,194.343 234.810 C 184.549 226.785,193.544 212.336,204.787 218.034 " stroke="none" fill="#000000" fill-rule="evenodd"></path></g></svg>