<svg id="svg" version="1.1" xmlns="http://www.w3.org/2000/svg" xmlns:xlink="http://www.w3.org/1999/xlink" width="100" height="100" viewBox="0, 0, 400,400"><g id="svgg"><path id="path0" d="M197.606 91.993 C 197.021 92.237,195.944 93.081,195.213 93.867 L 193.883 95.298 193.723 131.027 C 193.546 170.465,193.560 170.770,195.749 172.959 L 197.259 174.468 253.110 174.468 L 308.961 174.468 310.597 172.831 L 312.234 171.195 312.234 133.212 L 312.234 95.230 310.682 93.492 L 309.130 91.755 253.900 91.652 C 223.524 91.595,198.191 91.749,197.606 91.993 M306.950 96.295 C 308.222 96.976,308.603 168.312,307.340 169.574 C 306.892 170.023,303.897 170.213,297.272 170.213 L 287.841 170.213 287.214 167.154 C 283.778 150.403,258.822 141.514,240.788 150.617 C 239.040 151.500,231.544 156.270,224.131 161.218 L 210.654 170.213 205.167 170.213 C 201.609 170.213,199.456 169.988,199.043 169.574 C 197.864 168.396,198.149 97.010,199.335 96.319 C 200.637 95.561,305.535 95.538,306.950 96.295 M185.998 98.922 C 184.946 100.172,184.722 100.841,185.053 101.743 C 186.114 104.634,190.703 102.358,190.333 99.125 C 190.074 96.855,187.826 96.750,185.998 98.922 M250.204 103.910 C 245.937 104.996,243.065 107.012,238.245 112.301 C 235.688 115.106,232.267 118.183,230.249 119.491 C 225.454 122.601,224.753 124.835,227.661 127.743 C 229.199 129.281,229.381 129.327,232.612 128.981 L 235.966 128.621 236.648 130.687 C 240.190 141.420,252.987 145.942,265.027 140.716 C 265.684 140.430,265.957 140.551,265.957 141.128 C 265.957 142.530,268.584 144.149,270.857 144.149 C 274.008 144.149,276.196 141.796,276.000 138.617 C 275.874 136.563,276.060 136.105,277.517 134.879 C 280.567 132.312,280.044 127.492,276.558 126.048 C 275.148 125.464,275.000 125.166,275.000 122.904 C 275.000 110.375,262.480 100.784,250.204 103.910 M179.427 105.452 C 177.762 107.301,177.565 107.871,178.186 109.032 C 179.435 111.366,183.511 109.255,183.511 106.273 C 183.511 104.034,181.134 103.557,179.427 105.452 M172.512 112.367 C 170.848 114.216,170.650 114.786,171.271 115.946 C 172.439 118.129,176.596 116.221,176.596 113.503 C 176.596 111.102,174.241 110.447,172.512 112.367 M260.740 117.347 C 261.708 117.851,263.457 118.554,264.628 118.908 C 266.310 119.417,266.700 119.760,266.489 120.547 C 265.737 123.363,266.232 128.117,267.409 129.368 L 268.594 130.630 267.192 132.600 C 260.891 141.457,246.496 140.132,241.445 130.231 C 240.059 127.516,240.019 127.596,243.704 125.826 C 248.636 123.457,252.365 119.336,254.249 114.174 L 254.803 112.656 256.891 114.543 C 258.039 115.580,259.771 116.842,260.740 117.347 M165.259 119.577 C 163.707 121.197,163.472 122.302,164.468 123.298 C 166.042 124.871,169.681 122.861,169.681 120.418 C 169.681 117.838,167.350 117.394,165.259 119.577 M158.551 126.377 C 156.169 128.382,156.594 130.851,159.322 130.851 C 161.940 130.851,163.842 126.677,161.737 125.551 C 160.366 124.817,160.423 124.802,158.551 126.377 M151.524 133.420 C 149.340 135.371,149.628 137.766,152.045 137.766 C 154.974 137.766,157.109 133.690,154.822 132.466 C 153.424 131.717,153.432 131.715,151.524 133.420 M144.221 140.614 C 142.531 142.414,142.847 144.357,144.869 144.589 C 146.883 144.819,149.045 142.845,148.827 140.975 C 148.600 139.028,145.910 138.817,144.221 140.614 M137.327 147.508 C 135.881 149.046,135.840 150.850,137.234 151.596 C 139.215 152.656,142.381 149.910,141.808 147.628 C 141.359 145.839,138.955 145.775,137.327 147.508 M130.435 154.398 C 127.968 157.024,130.061 160.238,132.871 158.139 C 134.902 156.623,135.477 155.495,134.784 154.388 C 133.884 152.950,131.791 152.955,130.435 154.398 M125.000 163.111 C 119.011 165.179,114.179 171.271,112.813 178.478 C 111.406 185.897,107.896 190.959,103.370 192.099 C 98.131 193.418,97.603 196.836,101.995 200.995 C 108.509 207.162,114.554 207.579,121.361 202.328 L 124.371 200.006 125.712 202.294 C 132.222 213.403,147.892 215.322,157.078 206.136 C 168.482 194.732,161.276 173.761,145.505 172.453 C 142.753 172.225,142.671 172.170,142.063 170.144 C 140.141 163.728,132.424 160.548,125.000 163.111 M301.236 177.793 C 299.571 179.642,299.373 180.212,299.994 181.372 C 301.162 183.554,305.319 181.647,305.319 178.928 C 305.319 176.528,302.964 175.873,301.236 177.793 M157.797 188.246 C 160.528 197.635,152.800 207.447,142.674 207.447 L 139.794 207.447 140.145 204.654 C 141.074 197.274,142.759 194.068,147.349 190.952 C 149.146 189.731,151.735 187.617,153.101 186.255 C 156.002 183.361,156.430 183.542,157.797 188.246 M293.982 185.003 C 292.430 186.623,292.195 187.727,293.191 188.723 C 294.765 190.297,298.404 188.286,298.404 185.843 C 298.404 183.263,296.073 182.820,293.982 185.003 M287.275 191.803 C 284.892 193.808,285.317 196.277,288.046 196.277 C 290.664 196.277,292.566 192.103,290.461 190.976 C 289.089 190.242,289.147 190.228,287.275 191.803 M280.247 198.846 C 278.064 200.797,278.351 203.191,280.768 203.191 C 283.697 203.191,285.833 199.115,283.546 197.891 C 282.147 197.143,282.156 197.140,280.247 198.846 M272.945 206.040 C 271.254 207.840,271.571 209.783,273.593 210.014 C 275.606 210.244,277.769 208.270,277.551 206.401 C 277.324 204.453,274.633 204.243,272.945 206.040 M203.575 207.816 C 203.055 207.952,199.824 210.440,196.394 213.346 C 184.539 223.393,182.304 223.829,165.216 219.422 L 153.570 216.419 141.546 216.587 L 129.521 216.755 126.154 218.581 C 124.302 219.585,121.823 221.500,120.646 222.836 C 117.530 226.374,85.556 285.767,85.261 288.564 C 84.576 295.085,92.531 299.734,98.116 296.074 C 98.888 295.568,104.215 288.094,109.953 279.466 C 122.978 259.880,122.642 260.049,122.526 273.138 C 122.440 282.832,121.339 292.971,119.658 299.557 C 118.317 304.808,118.346 305.628,119.923 307.205 L 121.228 308.511 142.204 308.511 C 168.246 308.511,165.571 309.715,166.015 297.787 C 166.288 290.433,166.686 287.418,168.601 278.191 C 171.243 265.460,171.438 255.568,169.211 247.361 C 167.898 242.524,167.357 242.917,174.294 243.669 C 186.963 245.043,189.641 243.742,201.248 230.573 C 205.884 225.314,210.372 220.077,211.221 218.936 C 215.441 213.269,210.460 206.025,203.575 207.816 M266.050 212.933 C 264.605 214.472,264.564 216.275,265.957 217.021 C 267.939 218.082,271.104 215.335,270.532 213.053 C 270.083 211.265,267.678 211.200,266.050 212.933 M259.158 219.824 C 256.691 222.450,258.784 225.663,261.594 223.565 C 263.625 222.048,264.201 220.921,263.507 219.814 C 262.607 218.376,260.514 218.381,259.158 219.824 M252.199 226.785 C 249.798 229.341,251.864 232.582,254.594 230.544 C 256.709 228.965,257.294 227.848,256.593 226.729 C 255.679 225.270,253.598 225.297,252.199 226.785 M241.661 235.654 C 214.731 240.507,202.629 272.332,219.314 294.418 C 236.404 317.040,273.433 311.084,282.714 284.221 C 291.925 257.563,269.209 230.689,241.661 235.654 M241.489 242.837 C 244.558 243.974,254.005 243.697,257.086 242.381 C 259.227 241.465,263.141 242.827,266.960 245.816 L 268.229 246.809 264.818 246.809 C 262.065 246.809,261.231 247.014,260.496 247.872 C 259.493 249.043,258.748 249.219,258.245 248.404 C 256.966 246.335,246.796 249.792,245.442 252.757 C 244.721 254.335,243.701 255.419,242.021 256.391 C 237.458 259.033,238.737 261.702,244.566 261.702 C 247.531 261.702,248.008 261.841,248.252 262.772 C 248.784 264.806,252.499 264.825,253.029 262.796 C 253.405 261.358,257.979 263.454,257.979 265.065 C 257.979 265.923,257.848 265.979,257.164 265.411 C 255.690 264.188,245.635 265.094,242.236 266.757 C 234.622 270.482,234.786 278.723,242.474 278.723 C 246.901 278.723,247.406 279.724,245.697 285.106 C 243.693 291.419,244.860 294.698,249.099 294.669 C 255.636 294.624,260.227 287.294,261.482 274.895 C 261.795 271.809,261.994 271.311,262.970 271.171 C 263.758 271.059,264.147 270.564,264.267 269.519 C 264.377 268.557,264.896 267.819,265.730 267.439 C 266.821 266.942,267.021 266.476,267.021 264.440 L 267.021 262.029 272.793 267.717 C 275.967 270.845,278.986 273.404,279.502 273.404 C 281.391 273.404,279.020 282.596,275.680 288.223 C 273.252 292.313,267.212 298.154,263.427 300.072 L 260.661 301.474 258.405 300.357 C 253.840 298.099,243.166 298.683,238.901 301.424 C 236.701 302.838,233.511 301.011,233.511 298.336 C 233.511 296.936,232.737 294.850,231.026 291.635 C 229.056 287.934,228.466 286.215,228.175 283.331 C 227.641 278.049,226.456 276.995,220.620 276.616 L 216.223 276.330 218.539 274.468 C 221.327 272.227,223.139 269.278,223.932 265.691 C 224.788 261.819,226.604 259.432,230.422 257.160 C 236.867 253.325,237.038 246.809,230.693 246.809 C 228.895 246.809,228.688 246.695,229.249 246.018 C 230.252 244.810,237.384 241.398,238.293 241.692 C 238.735 241.834,240.173 242.350,241.489 242.837 " stroke="none" fill="#000000" fill-rule="evenodd"></path></g></svg>
