<svg id="svg" version="1.1" xmlns="http://www.w3.org/2000/svg" xmlns:xlink="http://www.w3.org/1999/xlink" width="400" height="400" viewBox="0, 0, 400,400"><g id="svgg"><path id="path0" d="M98.646 78.965 L 97.340 80.271 97.340 191.925 L 97.340 303.580 98.443 304.981 L 99.545 306.383 153.807 306.383 L 208.068 306.383 211.936 309.582 C 234.400 328.164,267.131 326.389,287.272 305.495 C 312.514 279.311,306.126 236.423,274.335 218.631 L 271.277 216.920 271.277 149.125 C 271.277 76.935,271.345 78.944,268.859 77.990 C 268.386 77.808,230.188 77.660,183.975 77.660 L 99.952 77.660 98.646 78.965 M262.766 149.897 L 262.766 213.623 258.112 212.637 C 251.040 211.139,239.264 211.598,232.713 213.626 L 227.926 215.108 190.293 215.274 L 152.660 215.440 152.660 219.688 L 152.660 223.936 182.390 223.936 L 212.121 223.936 208.281 227.660 L 204.441 231.383 178.550 231.383 L 152.660 231.383 152.660 235.372 L 152.660 239.362 175.798 239.362 C 188.524 239.362,198.936 239.448,198.936 239.554 C 198.936 239.660,197.997 241.754,196.849 244.208 C 195.700 246.662,194.429 249.987,194.023 251.596 L 193.285 254.521 172.972 254.661 L 152.660 254.800 152.660 259.049 L 152.660 263.298 172.340 263.298 L 192.021 263.298 192.021 267.021 L 192.021 270.745 172.340 270.745 L 152.660 270.745 152.660 274.734 L 152.660 278.723 172.810 278.723 L 192.960 278.723 194.410 283.373 C 195.858 288.021,197.941 292.594,200.337 296.390 L 201.609 298.404 153.730 298.404 L 105.851 298.404 105.851 192.287 L 105.851 86.170 184.309 86.170 L 262.766 86.170 262.766 149.897 M123.778 94.384 C 107.061 100.347,111.244 125.117,128.989 125.237 C 138.612 125.302,144.969 118.944,144.914 109.309 C 144.850 98.295,134.098 90.703,123.778 94.384 M152.660 101.596 L 152.660 105.851 203.989 105.851 L 255.319 105.851 255.319 101.596 L 255.319 97.340 203.989 97.340 L 152.660 97.340 152.660 101.596 M133.879 103.812 C 137.937 107.602,137.468 113.145,132.851 115.960 C 126.668 119.730,119.201 112.436,122.571 105.919 C 124.710 101.783,130.543 100.696,133.879 103.812 M152.660 117.553 L 152.660 121.809 196.011 121.809 L 239.362 121.809 239.362 117.553 L 239.362 113.298 196.011 113.298 L 152.660 113.298 152.660 117.553 M246.919 117.420 L 247.074 121.543 251.197 121.698 L 255.319 121.853 255.319 117.576 L 255.319 113.298 251.041 113.298 L 246.764 113.298 246.919 117.420 M123.778 133.746 C 107.061 139.709,111.244 164.479,128.989 164.599 C 138.612 164.664,144.969 158.306,144.914 148.670 C 144.850 137.657,134.098 130.065,123.778 133.746 M152.660 140.957 L 152.660 145.213 203.989 145.213 L 255.319 145.213 255.319 140.957 L 255.319 136.702 203.989 136.702 L 152.660 136.702 152.660 140.957 M133.879 143.174 C 137.937 146.964,137.468 152.507,132.851 155.322 C 126.668 159.092,119.201 151.798,122.571 145.281 C 124.710 141.145,130.543 140.058,133.879 143.174 M152.770 156.782 L 152.926 160.904 196.011 160.904 L 239.096 160.904 239.251 156.782 L 239.406 152.660 196.011 152.660 L 152.615 152.660 152.770 156.782 M246.919 156.782 L 247.074 160.904 251.064 160.904 L 255.053 160.904 255.209 156.782 L 255.364 152.660 251.064 152.660 L 246.764 152.660 246.919 156.782 M123.778 173.108 C 107.061 179.071,111.244 203.840,128.989 203.961 C 138.612 204.026,144.969 197.667,144.914 188.032 C 144.850 177.019,134.098 169.426,123.778 173.108 M152.660 180.319 L 152.660 184.574 203.989 184.574 L 255.319 184.574 255.319 180.319 L 255.319 176.064 203.989 176.064 L 152.660 176.064 152.660 180.319 M133.879 182.535 C 137.937 186.326,137.468 191.869,132.851 194.684 C 126.668 198.453,119.201 191.160,122.571 184.642 C 124.710 180.507,130.543 179.420,133.879 182.535 M152.770 196.144 L 152.926 200.266 196.011 200.266 L 239.096 200.266 239.251 196.144 L 239.406 192.021 196.011 192.021 L 152.615 192.021 152.770 196.144 M246.919 196.144 L 247.074 200.266 251.064 200.266 L 255.053 200.266 255.209 196.144 L 255.364 192.021 251.064 192.021 L 246.764 192.021 246.919 196.144 M123.778 212.469 C 107.061 218.433,111.244 243.202,128.989 243.322 C 138.612 243.387,144.969 237.029,144.914 227.394 C 144.850 216.380,134.098 208.788,123.778 212.469 M133.879 221.897 C 137.937 225.687,137.468 231.230,132.851 234.045 C 126.668 237.815,119.201 230.521,122.571 224.004 C 124.710 219.868,130.543 218.781,133.879 221.897 M258.814 221.558 C 295.974 230.837,306.553 279.674,276.543 303.404 C 249.597 324.711,210.219 311.455,201.793 278.240 C 193.121 244.053,224.396 212.964,258.814 221.558 M243.085 227.433 C 211.968 232.774,197.417 264.904,214.864 289.749 C 237.525 322.017,288.276 304.468,286.576 264.952 C 285.610 242.489,263.997 223.843,243.085 227.433 M254.470 236.689 C 278.135 242.742,286.290 271.700,269.154 288.835 C 251.727 306.263,221.832 297.307,216.758 273.138 C 212.107 250.988,232.671 231.114,254.470 236.689 M243.085 255.937 L 243.085 268.788 249.580 275.357 L 256.074 281.927 259.158 278.875 L 262.242 275.824 256.919 270.483 L 251.596 265.141 251.596 254.113 L 251.596 243.085 247.340 243.085 L 243.085 243.085 243.085 255.937 M123.778 251.831 C 107.061 257.794,111.244 282.564,128.989 282.684 C 138.612 282.749,144.969 276.391,144.914 266.755 C 144.850 255.742,134.098 248.150,123.778 251.831 M133.879 261.259 C 137.937 265.049,137.468 270.592,132.851 273.407 C 126.668 277.177,119.201 269.883,122.571 263.366 C 124.710 259.230,130.543 258.143,133.879 261.259 " stroke="none" fill="#000000" fill-rule="evenodd"></path></g></svg>